<?xml version="1.0" standalone="no"?>
<!DOCTYPE svg PUBLIC "-//W3C//DTD SVG 1.1//EN" "http://www.w3.org/Graphics/SVG/1.1/DTD/svg11.dtd" >
<svg xmlns="http://www.w3.org/2000/svg">
<metadata>
This is a custom SVG webfont generated by Font Squirrel.
Copyright   : Copyright 2011 Dalton Maag Ltd Modification of this file requires prior written permission from Dalton Maag Ltd
Designer    : Dalton Maag Ltd
Foundry     : Dalton Maag Ltd
Foundry URL : httpwwwdaltonmaagcom
</metadata>
<defs>
<font id="TerumoBCTBold" horiz-adv-x="1161" >
<font-face units-per-em="2048" ascent="1638" descent="-410" />
<missing-glyph horiz-adv-x="430" />
<glyph unicode=" "  horiz-adv-x="430" />
<glyph unicode="&#x09;" horiz-adv-x="430" />
<glyph unicode="&#xa0;" horiz-adv-x="430" />
<glyph unicode="!" horiz-adv-x="518" d="M84 143q0 66 49 116t127 50q39 0 69.5 -14t54.5 -36.5t37 -52.5t13 -63t-13 -62.5t-37 -53t-54.5 -37t-69.5 -13.5q-78 0 -127 50t-49 116zM121 432v934h282v-934h-282z" />
<glyph unicode="&#x22;" horiz-adv-x="894" d="M96 760v606h269v-606h-269zM528 760v606h271v-606h-271z" />
<glyph unicode="#" horiz-adv-x="1443" d="M76 422v233h299v207h-299v232h299v272h243v-272h216v272h243v-272h301v-232h-301v-207h301v-233h-301v-270h-243v270h-216v-270h-243v270h-299zM618 655h216v207h-216v-207z" />
<glyph unicode="$" d="M45 248l227 131q61 -92 137 -129t175 -37q102 0 163.5 38t61.5 103q0 45 -17.5 78t-47 57.5t-68.5 42t-80 33.5q-84 33 -172 66t-161 81t-119 118.5t-46 181.5q0 84 34 148.5t89 110.5t129 73.5t152 39.5v302h194v-295q127 -14 234.5 -75t171.5 -171l-238 -117 q-49 72 -115.5 101.5t-146.5 29.5q-96 0 -156.5 -37t-60.5 -102q0 -35 20.5 -61.5t50 -47t64.5 -35t64 -24.5q90 -35 181 -71t166 -88t123 -129t48 -193q0 -86 -34 -153.5t-90 -117t-129 -79t-153 -41.5v-265h-194v262q-143 16 -262 79t-195 192z" />
<glyph unicode="%" horiz-adv-x="1591" d="M8 1061q0 61 22.5 118.5t67.5 102.5t113 72.5t160 27.5q90 0 157.5 -27.5t112.5 -72.5t67.5 -102.5t22.5 -116.5q0 -61 -22.5 -118.5t-67.5 -102.5t-112.5 -73t-157.5 -28q-92 0 -160 27q-68 29 -113 74t-67.5 102.5t-22.5 116.5zM27 135l1407 1249l147 -141l-1415 -1251 zM240 1065q0 -53 28 -100q33 -47 101 -47q63 0 96 47t33 100t-33 99t-96 46q-68 0 -98.5 -46t-30.5 -99zM862 303q0 59 22.5 117.5t67.5 103.5t114 73t159 28q92 0 158.5 -28t111.5 -73t67.5 -102t22.5 -117q0 -61 -22.5 -118.5t-67.5 -102.5t-112.5 -72.5t-159.5 -27.5 q-90 0 -158 26q-68 29 -113 74t-67.5 102.5t-22.5 116.5zM1092 305q0 -53 32 -100q33 -45 97 -45q66 0 97.5 46t31.5 99t-32 99.5t-97 46.5q-63 0 -96 -46.5t-33 -99.5z" />
<glyph unicode="&#x26;" horiz-adv-x="1435" d="M82 383q0 123 73.5 244t235.5 207q-43 51 -75.5 109t-32.5 132q0 68 28.5 122t77.5 91t117.5 57.5t148.5 20.5t139.5 -14.5t104.5 -41t78 -62.5t59 -81l-219 -116q-29 51 -68.5 83.5t-93.5 32.5q-45 0 -74.5 -22.5t-29.5 -61.5q0 -29 16.5 -58.5t44.5 -63.5l295 -363 q59 104 130 198.5t167 155.5l146 -188q-88 -68 -152.5 -166t-126.5 -203l318 -395h-326l-143 176q-35 -43 -71 -80t-81 -63.5t-103.5 -41t-140.5 -14.5q-102 0 -185 34t-140.5 89.5t-87 129t-29.5 153.5zM358 381q0 -37 12.5 -69.5t36 -58.5t58.5 -41t78 -15q72 0 123 49 t100 121l-225 282q-94 -53 -138.5 -125.5t-44.5 -142.5z" />
<glyph unicode="'" horiz-adv-x="483" d="M106 760v606h271v-606h-271z" />
<glyph unicode="(" horiz-adv-x="671" d="M86 698q0 285 136 492t384 323l84 -167q-156 -104 -237.5 -262t-81.5 -386q0 -231 83 -387.5t238 -261.5l-86 -166q-248 117 -384 322.5t-136 492.5z" />
<glyph unicode=")" horiz-adv-x="671" d="M-23 49q156 104 240 261t84 388q0 227 -83 385t-236 263l81 167q248 -117 385.5 -323.5t137.5 -491.5q0 -287 -137.5 -492.5t-385.5 -322.5z" />
<glyph unicode="*" horiz-adv-x="978" d="M57 1235l123 166l199 -121v205h213v-205l203 121l125 -166l-236 -137l229 -137l-108 -177l-213 125v-215h-213v215l-207 -125l-111 177l236 135z" />
<glyph unicode="+" d="M49 563v225h414v412h233v-412h414v-225h-414v-405h-233v405h-414z" />
<glyph unicode="," horiz-adv-x="501" d="M6 -111q49 10 95 35t69 49q-31 20 -48.5 57.5t-17.5 78.5q0 61 39 113t117 52q70 0 115 -47t45 -114q0 -43 -21.5 -91.5t-66.5 -92.5t-118 -83t-171 -63z" />
<glyph unicode="-" horiz-adv-x="708" d="M82 412v243h547v-243h-547z" />
<glyph unicode="." horiz-adv-x="477" d="M82 125q0 57 39 103t121 46q76 0 114.5 -46t38.5 -103q0 -55 -38 -101.5t-115 -46.5q-82 0 -121 46.5t-39 101.5z" />
<glyph unicode="/" horiz-adv-x="1167" d="M0 51l954 1518l213 -109l-950 -1526z" />
<glyph unicode="0" d="M41 676q0 123 27.5 248t90 226t166 165.5t255.5 64.5t256 -64.5t166.5 -165.5t90 -226t27.5 -248t-27.5 -248t-90 -226.5t-167 -166t-255.5 -64.5q-152 0 -254 64q-104 66 -167 167t-90.5 226t-27.5 248zM336 678q0 -98 13 -183t44 -151q31 -63 77 -100t110 -37 q66 0 111.5 37t76.5 101.5t44 149.5t13 183t-13 183t-43 147.5t-77 99.5t-112 37q-63 0 -110.5 -37t-77.5 -99.5t-43 -147.5t-13 -183z" />
<glyph unicode="1" d="M141 1083l473 273h228v-1356h-295v1040l-273 -155z" />
<glyph unicode="2" d="M53 1063q35 63 85 121.5t119 101.5t155 68.5t190 25.5q92 0 175 -24.5t144.5 -73.5t98.5 -120.5t37 -166.5q0 -115 -53.5 -225.5t-143.5 -214.5q-76 -88 -162 -171t-153 -153h551v-231h-973v160q129 129 261 262t239 264q57 70 97 138.5t40 152.5q0 78 -49 123t-140 45 q-80 0 -153.5 -56.5t-128.5 -146.5z" />
<glyph unicode="3" d="M31 264l229 127q70 -109 145.5 -146.5t159.5 -37.5q96 0 162 48t66 132q0 94 -81 144.5t-231 52.5v207q141 10 215 63t74 141q0 68 -53 108t-150 40q-76 0 -141.5 -40t-120.5 -138l-229 127q88 154 226 221t304 67q92 0 174 -25.5t144.5 -72.5t99.5 -115.5t37 -154.5 q0 -131 -52.5 -206t-134.5 -104q84 -31 146.5 -102.5t62.5 -200.5q0 -104 -43 -184t-113.5 -132t-163.5 -79t-196 -27q-162 0 -301 63.5t-235 223.5z" />
<glyph unicode="4" d="M57 342v203l678 811h232v-778h149v-236h-149v-342h-281v342h-629zM387 578h299v362z" />
<glyph unicode="5" d="M82 233l229 134q59 -88 118.5 -123t139.5 -35q88 0 151.5 53t63.5 152q0 61 -20.5 110t-69.5 83t-132 52.5t-206 18.5h-184v678h832v-230h-576v-231h8q137 0 254 -26.5t202 -84t132 -145.5t47 -213q0 -111 -42 -195t-110.5 -140t-157.5 -85t-188 -29q-68 0 -136 13.5 t-131.5 43t-121 78.5t-102.5 121z" />
<glyph unicode="6" d="M104 487q0 143 49.5 289t145.5 270.5t242.5 214t345.5 119.5l57 -209q-168 -35 -299 -124t-188 -216q41 25 89 39.5t109 14.5q94 0 172 -34t132.5 -93.5t83 -141t28.5 -176.5q0 -92 -30.5 -175t-89 -147.5t-148.5 -102.5t-209 -38q-94 0 -183 29t-157 91.5t-109 158.5 t-41 231zM399 471q0 -68 17.5 -117t45 -80.5t63.5 -47t73 -15.5q82 0 132 55.5t50 153.5q0 111 -53 173t-137 62q-53 0 -101 -16q-47 -14 -73 -31q-8 -23 -12.5 -65.5t-4.5 -71.5z" />
<glyph unicode="7" d="M63 1126v230h1027v-164l-560 -1192h-303l523 1126h-687z" />
<glyph unicode="8" d="M88 383q0 43 12.5 88t36 88t56.5 80q35 37 79 61q-86 59 -122.5 138.5t-36.5 152.5q0 76 32.5 145.5t94 124t148.5 87t196 32.5q104 0 191 -31.5t148.5 -85t94.5 -123t33 -145.5q0 -74 -39 -156.5t-121 -136.5q90 -51 136 -141t46 -176q0 -78 -32.5 -151.5t-96 -130 t-155 -91.5t-209.5 -35q-117 0 -209 34t-154.5 91.5t-95.5 130t-33 150.5zM375 399q0 -78 51 -135q53 -55 158 -55q102 0 153 54t51 132t-55 135.5t-155 57.5q-96 0 -149.5 -56.5t-53.5 -132.5zM397 985q0 -33 12.5 -65.5t34.5 -59.5q25 -27 58 -43t78 -16q43 0 77.5 17.5 t58 44t37 59t13.5 65.5q0 31 -13.5 61.5t-37 55t-58 40t-77.5 15.5t-76 -15.5t-56.5 -40t-37 -56t-13.5 -62.5z" />
<glyph unicode="9" d="M94 930q0 84 31 165t89 144.5t147.5 102t209.5 38.5q92 0 181.5 -29.5t157 -93t109.5 -161t42 -232.5q0 -152 -49 -296t-146.5 -264t-244 -207t-342.5 -120l-58 211q168 35 299 130.5t193 224.5q-39 -25 -94.5 -39.5t-108.5 -14.5q-102 0 -179 38t-130.5 99.5t-80 140.5 t-26.5 163zM387 932q0 -41 13.5 -79t37 -67.5t58 -48t79.5 -18.5q51 0 91 8q43 10 84 33q8 20 12 56t4 65q0 70 -18.5 120t-46 81.5t-62.5 47t-70 15.5q-43 0 -76.5 -18.5t-57 -48t-36 -68.5t-12.5 -78z" />
<glyph unicode=":" horiz-adv-x="477" d="M82 125q0 57 39 103t121 46q76 0 114.5 -46t38.5 -103q0 -55 -38 -101.5t-115 -46.5q-82 0 -121 46.5t-39 101.5zM82 838q0 57 39 103t121 46q76 0 114.5 -46t38.5 -103q0 -55 -38 -101.5t-115 -46.5q-82 0 -121 46.5t-39 101.5z" />
<glyph unicode=";" horiz-adv-x="501" d="M6 -111q49 10 95 35t69 49q-31 20 -48.5 57.5t-17.5 78.5q0 61 39 113t117 52q70 0 115 -47t45 -114q0 -43 -21.5 -91.5t-66.5 -92.5t-118 -83t-171 -63zM115 838q0 57 37.5 103t119.5 46q78 0 117 -46t39 -103q0 -55 -38 -101.5t-118 -46.5q-82 0 -119.5 46.5 t-37.5 101.5z" />
<glyph unicode="&#x3c;" d="M49 596v170l987 317l74 -225l-565 -174l585 -192l-73 -230z" />
<glyph unicode="=" d="M49 317v226h1061v-226h-1061zM49 758v225h1061v-225h-1061z" />
<glyph unicode="&#x3e;" d="M31 492l585 192l-565 174l74 225l987 -317v-170l-1008 -334z" />
<glyph unicode="?" horiz-adv-x="907" d="M-27 1139q76 113 194 184.5t288 71.5q215 0 327.5 -102.5t112.5 -276.5q0 -51 -16.5 -94t-42 -82t-58.5 -73t-63 -65q-57 -57 -102.5 -109t-45.5 -112v-49h-272v86q0 41 13.5 80t35 73t47 62.5t45.5 48.5q31 31 61.5 57.5t55.5 55.5t41 59.5t16 69.5q0 72 -45 111 t-129 39q-61 0 -123.5 -34t-132.5 -132zM256 143q0 33 13.5 63t37 52.5t54 36.5t69.5 14q78 0 127 -50t49 -116t-49 -116t-127 -50q-39 0 -72 15q-29 12 -52 35.5t-36.5 53t-13.5 62.5z" />
<glyph unicode="@" horiz-adv-x="2013" d="M96 510q0 186 74 344t202 271.5t299 178t367 64.5q184 0 345 -56.5t279 -159.5t186.5 -249.5t68.5 -327.5q0 -129 -36 -228t-96.5 -166.5t-141 -103.5t-168.5 -36q-70 0 -135.5 20.5t-114.5 65.5q-43 -37 -103.5 -59.5t-134.5 -22.5q-90 0 -166 34t-131 93t-86 140 t-31 177q0 104 37 188.5t104.5 145t161 92t205.5 31.5q70 0 154 -11t158 -28v-540q0 -72 31.5 -94.5t66.5 -22.5q80 0 129 83t49 230q0 143 -48 255t-132 187.5t-199.5 114.5t-253.5 39q-154 0 -280.5 -48t-219 -134t-142.5 -205t-50 -260q0 -156 56.5 -277.5t154.5 -206.5 t229 -129t281 -44q94 0 192.5 18t198.5 57l66 -188q-233 -92 -475 -92q-190 0 -362.5 57t-302.5 168t-208 270.5t-78 364.5zM821 487q0 -117 55.5 -178t145.5 -61q35 0 66.5 9t60.5 26q-2 10 -2 18v438q-20 2 -41 2h-33q-51 0 -97 -14t-80 -45t-54.5 -79t-20.5 -116z" />
<glyph unicode="A" horiz-adv-x="1392" d="M0 0l590 1366h203l598 -1366h-312l-116 274h-551l-119 -274h-293zM500 506h368l-184 448z" />
<glyph unicode="B" horiz-adv-x="1286" d="M166 0v1366h512q102 0 189 -24.5t149.5 -72.5t98.5 -117t36 -155q0 -92 -46 -159.5t-128 -114.5q115 -39 185.5 -124t70.5 -214q0 -109 -64.5 -207t-195.5 -145q-51 -16 -107.5 -24.5t-109.5 -8.5h-590zM451 233h206q76 0 119 6.5t72 20.5q47 25 68.5 60.5t21.5 74.5 q0 45 -26.5 88t-82.5 70q-35 16 -78.5 23.5t-97.5 7.5h-202v-351zM451 807h143q49 0 94 4t64 14q57 25 81.5 63t24.5 79q0 49 -33.5 91t-99.5 62q-10 2 -28.5 5t-41.5 4l-45 3q-23 1 -41 1h-118v-326z" />
<glyph unicode="C" horiz-adv-x="1306" d="M96 678q0 184 53.5 318t140.5 223.5t201.5 132.5t237.5 43q98 0 178 -21.5t143.5 -62.5t111.5 -100.5t85 -135.5l-233 -125q-43 88 -106.5 145.5t-172.5 57.5q-66 0 -128 -28.5t-110 -88t-77 -148.5t-29 -210q0 -106 27.5 -192.5t77 -145.5t114 -92t138.5 -33 q41 0 78.5 8t72.5 29.5t66.5 57.5t64.5 93l225 -131q-96 -164 -219 -232.5t-299 -68.5q-141 0 -260 47.5t-204 138.5t-131 222t-46 299z" />
<glyph unicode="D" horiz-adv-x="1421" d="M166 0v1366h426q82 0 180 -12.5t189 -48.5q92 -41 162.5 -105.5t115.5 -145.5t67.5 -174.5t22.5 -189.5t-22.5 -189t-68.5 -176t-116.5 -148.5t-163.5 -106.5q-156 -70 -356 -70h-436zM457 246h114q158 0 260 51q104 51 153.5 156.5t49.5 224.5q0 117 -45 220t-139 161 q-49 31 -123 46t-149 15h-121v-874z" />
<glyph unicode="E" horiz-adv-x="1259" d="M166 0v1366h985v-248h-694v-311h573v-248h-573v-311h743v-248h-1034z" />
<glyph unicode="F" horiz-adv-x="1153" d="M166 0v1366h977v-248h-686v-323h544v-244h-544v-551h-291z" />
<glyph unicode="G" horiz-adv-x="1347" d="M96 678q0 184 52.5 318t139.5 223.5t200.5 132.5t240.5 43q193 0 314.5 -74t197.5 -225l-235 -125q-43 86 -109 134t-162 48q-63 0 -125.5 -28.5t-111.5 -88t-78 -148.5t-29 -210q0 -106 30 -191.5t82 -145.5t120.5 -93t148.5 -33q70 0 126 6t93 17v245h-233v236h504 v-658q-88 -37 -210 -63.5t-313 -26.5q-137 0 -255.5 47.5t-204.5 138.5t-134.5 222t-48.5 299z" />
<glyph unicode="H" horiz-adv-x="1480" d="M166 0v1366h291v-541h569v541h291v-1366h-291v578h-569v-578h-291z" />
<glyph unicode="I" horiz-adv-x="620" d="M166 0v1366h291v-1366h-291z" />
<glyph unicode="J" horiz-adv-x="638" d="M-92 -59q150 29 212 88t62 153v1184h291v-1229q0 -96 -37 -168.5t-104.5 -125t-160.5 -85t-210 -51.5z" />
<glyph unicode="K" horiz-adv-x="1374" d="M166 0v1366h291v-522l549 522h344l-564 -532l592 -834h-327l-461 647l-133 -127v-520h-291z" />
<glyph unicode="L" horiz-adv-x="1189" d="M166 0v1366h291v-1118h721v-248h-1012z" />
<glyph unicode="M" horiz-adv-x="1732" d="M166 0v1366h297l424 -909l381 909h299v-1366h-285v764l-346 -772h-105l-380 780v-772h-285z" />
<glyph unicode="N" horiz-adv-x="1495" d="M166 0v1366h297l579 -852v852h287v-1366h-254l-624 903v-903h-285z" />
<glyph unicode="O" horiz-adv-x="1519" d="M96 684q0 131 41 259t123 228.5t207 162t291 61.5t291 -61.5t208.5 -162t124.5 -228.5t41 -259t-41 -259t-124.5 -228.5t-208.5 -163t-291 -62.5t-291 62q-125 63 -207 163.5t-123 228.5t-41 259zM389 684q0 -90 23.5 -175t70.5 -151t115 -104.5t160 -38.5q90 0 159.5 39 t116.5 104.5t70.5 150.5t23.5 175t-23.5 175t-70.5 150.5t-116.5 104.5t-159.5 39q-92 0 -160 -39t-115 -104.5t-70.5 -150.5t-23.5 -175z" />
<glyph unicode="P" horiz-adv-x="1273" d="M166 0v1366h450q111 0 204 -13.5t177 -52.5q111 -49 162 -146t51 -208q0 -61 -17 -123.5t-49 -116t-79 -96.5t-109 -67q-76 -29 -152.5 -40t-156.5 -11h-198v-492h-283zM449 727h161q63 0 113.5 6t87.5 23q61 27 87 74t26 100q0 57 -29 106t-90 70q-37 12 -78 18t-106 6 h-172v-403z" />
<glyph unicode="Q" horiz-adv-x="1519" d="M96 684q0 131 41 259t123 228.5t207 162t291 61.5t291 -61.5t208.5 -162t124.5 -228.5t41 -259q0 -111 -29.5 -218.5t-89 -200.5t-147.5 -163.5t-205 -103.5q25 -43 93.5 -58.5t179.5 -15.5l-33 -219q-268 8 -407.5 81t-190.5 206q-125 29 -218 97.5t-154.5 162.5 t-93.5 205.5t-32 226.5zM389 684q0 -90 23.5 -175t70.5 -151t115 -104.5t160 -38.5q90 0 159.5 39t116.5 104.5t70.5 150.5t23.5 175t-23.5 175t-70.5 150.5t-116.5 104.5t-159.5 39q-92 0 -160 -39t-115 -104.5t-70.5 -150.5t-23.5 -175z" />
<glyph unicode="R" horiz-adv-x="1339" d="M166 0v1366h582q90 0 181 -18.5t162.5 -64.5t117.5 -124t46 -198q0 -74 -19 -141.5t-59 -124t-103.5 -99.5t-151.5 -68l368 -528h-329l-355 512h-157v-512h-283zM449 748h223q156 0 227.5 47t71.5 139q0 98 -67.5 146t-231.5 48h-223v-380z" />
<glyph unicode="S" horiz-adv-x="1196" d="M55 223l221 139q51 -78 134.5 -117.5t189.5 -39.5q109 0 175.5 41t66.5 108q0 43 -15.5 76t-52.5 61.5t-101.5 56t-162.5 60.5q-92 31 -167 66t-127 82t-81 109.5t-29 148.5q0 84 32 153.5t95.5 120.5t157.5 79t221 28q106 0 186.5 -19.5t139.5 -52.5t102 -76t76 -90 l-209 -141q-45 66 -113.5 108.5t-183.5 42.5q-109 0 -166 -36.5t-57 -96.5q0 -72 72.5 -118t220.5 -97q109 -37 191.5 -78t139 -93t85 -119.5t28.5 -159.5q0 -100 -44 -175t-115.5 -124.5t-167 -74t-193.5 -24.5q-391 0 -549 252z" />
<glyph unicode="T" horiz-adv-x="1167" d="M10 1118v248h1147v-248h-426v-1118h-293v1118h-428z" />
<glyph unicode="U" horiz-adv-x="1476" d="M158 469v897h288v-870q0 -123 76 -202t217 -79t216 79t75 202v870h291v-897q0 -117 -45 -209t-125 -156.5t-185.5 -98.5t-228.5 -34q-121 0 -227.5 34t-184 98.5t-122.5 156.5t-45 209z" />
<glyph unicode="V" horiz-adv-x="1363" d="M0 1366h309l412 -938l356 938h287l-551 -1366h-178z" />
<glyph unicode="W" horiz-adv-x="1673" d="M0 1366h291l176 -811l278 811h179l280 -811l180 811h289l-330 -1366h-182l-327 915l-324 -915h-182z" />
<glyph unicode="X" horiz-adv-x="1245" d="M0 0l467 711l-434 655h325l263 -416l264 416h325l-432 -655l467 -711h-325l-299 471l-295 -471h-326z" />
<glyph unicode="Y" horiz-adv-x="1249" d="M0 1366h322l313 -543l297 543h317l-475 -817v-549h-291v549z" />
<glyph unicode="Z" horiz-adv-x="1234" d="M74 0v225l731 893h-672v248h1026v-233l-725 -885h737v-248h-1097z" />
<glyph unicode="[" horiz-adv-x="645" d="M141 -293v1800h504v-225h-233v-1350h233v-225h-504z" />
<glyph unicode="\" horiz-adv-x="1167" d="M0 1460l213 109l954 -1518l-217 -117z" />
<glyph unicode="]" horiz-adv-x="645" d="M0 -68h236v1350h-236v225h504v-1800h-504v225z" />
<glyph unicode="^" horiz-adv-x="1187" d="M131 659l354 707h209l365 -676l-252 -92l-215 436l-201 -454z" />
<glyph unicode="_" horiz-adv-x="1204" d="M0 -307h1204v-185h-1204v185z" />
<glyph unicode="`" horiz-adv-x="950" d="M190 1331l138 170l432 -289l-76 -110z" />
<glyph unicode="a" horiz-adv-x="1105" d="M74 291q0 74 31.5 130t86 95t124 63.5t147.5 36.5q53 10 117.5 15.5t107.5 9.5v33q0 59 -43 96t-100 37q-37 0 -93.5 -18.5t-107.5 -69.5l-190 127q39 49 92 82t107.5 51t108.5 25.5t99 7.5q90 0 166 -21.5t130 -67.5t85 -117t31 -171v-635h-258l-15 74 q-45 -45 -114.5 -71t-153.5 -26q-70 0 -135.5 21.5t-114.5 61.5t-78.5 98.5t-29.5 132.5zM346 297q0 -49 39 -79t115 -30q53 0 103 20.5t87 51.5v201q-43 -2 -91 -7t-91 -14q-90 -16 -126 -56t-36 -87z" />
<glyph unicode="b" horiz-adv-x="1189" d="M139 61v1305h283v-377q45 10 86 16.5t96 6.5q129 0 224.5 -43t159 -114t95 -160t31.5 -183q0 -143 -45 -244.5t-123 -166t-180 -94.5t-215 -30q-106 0 -209 22.5t-203 61.5zM422 211q29 -6 59.5 -12t59.5 -6q133 0 217 79.5t84 233.5q0 74 -21.5 128t-60.5 90t-91.5 54.5 t-109.5 18.5q-61 0 -137 -23v-563z" />
<glyph unicode="c" horiz-adv-x="1046" d="M76 489q0 131 41 229.5t108.5 164t155.5 97.5t182 32t169 -25.5t129 -66.5t90 -92.5t55 -102.5l-222 -104q-37 98 -91 138t-124 40q-43 0 -81.5 -18.5t-69.5 -55.5t-49.5 -94.5t-18.5 -136.5q0 -141 65.5 -219t172.5 -78q82 0 133 38.5t92 110.5l211 -108 q-68 -133 -180.5 -197t-263.5 -64q-98 0 -189.5 33t-161 97.5t-111.5 159.5t-42 222z" />
<glyph unicode="d" horiz-adv-x="1198" d="M76 498q0 96 31.5 188t96 165t162 117t228.5 44q88 0 184 -29v383h281v-1366h-256l-15 76q-39 -39 -100 -69t-147 -30q-113 0 -200 43t-146.5 115t-89 166.5t-29.5 196.5zM348 504q0 -61 15.5 -117.5t45 -98.5t75.5 -67.5t112 -25.5q51 0 105.5 25.5t76.5 60.5v487 q-80 29 -149 29q-72 0 -125 -24.5t-87 -66.5t-51.5 -94.5t-17.5 -107.5z" />
<glyph unicode="e" horiz-adv-x="1128" d="M76 494q0 125 40 221t108.5 161.5t159.5 100.5t194 35q217 0 350 -144.5t137 -437.5h-709q12 -125 82 -180t156 -55q76 0 135 25.5t125 111.5l209 -121q-88 -129 -205 -181.5t-272 -52.5q-104 0 -196.5 31t-162 95.5t-110.5 161t-41 229.5zM362 612h416 q-8 98 -69.5 147.5t-130.5 49.5q-35 0 -71 -13.5t-65.5 -39t-50.5 -62.5t-29 -82z" />
<glyph unicode="f" horiz-adv-x="720" d="M35 782v205h143v35q0 98 27.5 168t77 116t115 67.5t143.5 21.5q102 0 178 -15.5t139 -44.5l-82 -205q-86 41 -190 41q-55 0 -91 -33.5t-36 -117.5v-33h233v-205h-231v-782h-283v782h-143z" />
<glyph unicode="g" horiz-adv-x="1146" d="M72 -117q0 72 31.5 116t86.5 73q-29 23 -51 59.5t-22 81.5q0 53 31.5 95t84.5 71q-61 47 -99 115.5t-38 150.5q0 92 40 160.5t105.5 115t150.5 69t175 22.5q63 0 112.5 -10.5t104.5 -30.5l166 166l158 -123l-152 -152q41 -43 63.5 -100t22.5 -117q0 -92 -39.5 -160.5 t-106.5 -113.5t-153 -67.5t-176 -22.5q-41 0 -81 5t-66 11q-12 -6 -22.5 -20.5t-10.5 -26.5q0 -14 10.5 -24.5t42 -18.5t88 -14.5t148.5 -8.5q111 -4 196.5 -19t143 -49t86 -88.5t28.5 -133.5q0 -88 -45 -146.5t-117.5 -94.5t-169 -50.5t-194.5 -14.5t-194.5 14.5t-171 48.5 t-120.5 90t-46 142zM319 -94q0 -127 291 -127q129 0 203 24.5t74 71.5q0 27 -11.5 45.5t-47 30.5t-100 19t-173.5 10q-43 2 -88 8q-45 4 -88 10q-20 -12 -40 -35.5t-20 -56.5zM362 643q0 -80 57.5 -122t147.5 -42t149.5 42t59.5 120t-59.5 125t-149.5 47t-147.5 -46 t-57.5 -124z" />
<glyph unicode="h" horiz-adv-x="1241" d="M139 0v1366h283v-444q51 37 122.5 63.5t174.5 26.5q104 0 178 -31t121 -86t68.5 -134t21.5 -175v-586h-283v567q0 123 -52 177.5t-122 54.5q-68 0 -130 -34t-99 -63v-702h-283z" />
<glyph unicode="i" horiz-adv-x="559" d="M113 1245q0 53 42 98.5t124 45.5q84 0 125.5 -45.5t41.5 -98.5q0 -55 -42 -100t-125 -45q-82 0 -124 45t-42 100zM139 0v987h281v-987h-281z" />
<glyph unicode="j" horiz-adv-x="579" d="M-16 -238q53 35 87.5 65t54 61.5t28 67.5t8.5 83v948h278v-948q0 -80 -18.5 -144.5t-55 -117.5t-94 -96t-135.5 -82zM135 1245q0 53 42 98.5t126 45.5q82 0 124 -45.5t42 -98.5q0 -55 -42 -100t-124 -45q-84 0 -126 45t-42 100z" />
<glyph unicode="k" horiz-adv-x="1122" d="M139 0v1366h283v-657l323 278h338l-356 -305l408 -682h-316l-297 510l-100 -90v-420h-283z" />
<glyph unicode="l" horiz-adv-x="561" d="M139 0v1366h283v-1366h-283z" />
<glyph unicode="m" horiz-adv-x="1894" d="M139 0v987h258l11 -74q51 41 124.5 70t149.5 29t152.5 -21.5t142.5 -75.5q74 41 163 69t191 28q123 0 205 -29t132 -82t71.5 -131t21.5 -178v-592h-280v580q0 98 -40 158.5t-151 60.5q-33 0 -64.5 -9.5t-61 -21.5t-53.5 -25.5t-36 -23.5q4 -25 8 -55.5t4 -67.5v-596h-278 v580q0 45 -9 85t-28.5 69.5t-52.5 47t-82 17.5q-63 0 -120.5 -31t-94.5 -66v-702h-283z" />
<glyph unicode="n" horiz-adv-x="1249" d="M139 0v987h256l13 -78q66 49 149.5 76t167.5 27q86 0 157.5 -23.5t124 -75t81 -133.5t28.5 -196v-584h-282v563q0 113 -51.5 174.5t-143.5 61.5q-66 0 -121 -31t-96 -68v-700h-283z" />
<glyph unicode="o" horiz-adv-x="1196" d="M76 498q0 96 31.5 188t97 165t164 117t229.5 44t228.5 -44t164 -117t98 -165t31.5 -188t-31.5 -189.5t-98 -167t-164 -119t-228.5 -45.5t-229 46q-98 45 -164 118.5t-97.5 167t-31.5 189.5zM350 498q0 -63 16.5 -117.5t47.5 -95.5q29 -41 75 -64.5t109 -23.5 q59 0 105.5 23.5t78 64.5t48 95t16.5 118q0 61 -16.5 116.5t-48 95.5t-78 63.5t-105.5 23.5q-61 0 -107.5 -23.5t-77 -63.5t-47 -95.5t-16.5 -116.5z" />
<glyph unicode="p" horiz-adv-x="1191" d="M139 -387v1374h256l13 -74q39 35 103 67t153 32q113 0 197.5 -43t141 -114t85 -165t28.5 -194q0 -96 -32.5 -189.5t-100.5 -166t-172 -118t-246 -45.5q-74 0 -143 29v-393h-283zM420 227q66 -29 131 -28q76 0 130 24.5t91 66.5t54.5 94t17.5 108q0 57 -15.5 112t-44 98 t-73.5 70t-105 27q-57 0 -109.5 -30t-76.5 -64v-478z" />
<glyph unicode="q" horiz-adv-x="1191" d="M76 496q0 100 33.5 193t106.5 165t182.5 115t260.5 43q84 0 183.5 -9.5t208.5 -23.5v-1366h-281v383q-43 -10 -80 -14.5t-76 -4.5q-133 0 -232 42t-169 113t-103.5 165.5t-33.5 198.5zM348 496q0 -63 19.5 -117.5t58.5 -94.5t96.5 -63.5t132.5 -23.5q43 0 66.5 8t48.5 18 v568q-31 4 -53.5 6t-54.5 2q-82 0 -140.5 -25.5t-97.5 -67.5t-57.5 -97.5t-18.5 -112.5z" />
<glyph unicode="r" horiz-adv-x="798" d="M139 0v987h256l13 -86q59 59 118.5 83t122.5 24q37 0 78 -8.5t84 -22.5l-49 -232q-43 16 -81 25.5t-75 9.5q-59 0 -108 -26.5t-76 -61.5v-692h-283z" />
<glyph unicode="s" horiz-adv-x="1042" d="M61 211l209 121q37 -66 102.5 -110t164.5 -44q86 0 135 25.5t49 70.5q0 43 -52.5 76t-191.5 58q-82 14 -149.5 37.5t-114.5 60.5t-72.5 88t-25.5 123q0 131 114.5 213t311.5 82q176 0 278.5 -54.5t159.5 -132.5l-199 -129q-39 49 -99 82t-140 33q-92 0 -126 -25.5 t-34 -66.5q0 -47 43 -67.5t160 -43.5q94 -18 167.5 -42.5t126 -62.5t79 -91.5t26.5 -124.5q0 -80 -35 -138.5t-95 -96.5t-141 -56.5t-175 -18.5q-184 0 -299.5 67t-176.5 167z" />
<glyph unicode="t" horiz-adv-x="790" d="M33 782v205h151v256h281v-256h252v-205h-252v-503q0 -47 22.5 -64.5t42.5 -17.5q43 0 84 20.5t72 42.5l100 -182q-70 -45 -148.5 -73t-166.5 -28q-53 0 -105.5 14.5t-92.5 45.5t-64.5 81t-24.5 122v542h-151z" />
<glyph unicode="u" horiz-adv-x="1245" d="M133 399v588h283v-561q0 -102 41 -165.5t139 -63.5q82 0 137 29.5t90 56.5v704h283v-987h-258l-12 78q-74 -57 -154 -77.5t-158 -20.5q-188 0 -289.5 104t-101.5 315z" />
<glyph unicode="v" horiz-adv-x="1146" d="M0 987h299l287 -655l274 655h287l-447 -987h-241z" />
<glyph unicode="w" horiz-adv-x="1542" d="M0 987h293l186 -594l205 594h172l207 -594l186 594h293l-371 -987h-204l-197 571l-197 -571h-202z" />
<glyph unicode="x" horiz-adv-x="1099" d="M0 987h315l240 -305l238 305h288l-379 -481l398 -506h-318l-239 311l-244 -311h-293l389 487z" />
<glyph unicode="y" horiz-adv-x="1112" d="M0 987h299l270 -674l258 674h285l-539 -1220q-23 -51 -55.5 -86t-71 -55.5t-83 -29t-87.5 -8.5q-55 0 -122.5 13.5t-139.5 42.5l88 190q41 -18 81 -26.5t69 -8.5q25 0 51.5 14.5t46.5 57.5l80 170z" />
<glyph unicode="z" horiz-adv-x="1091" d="M78 0v182l594 600h-572v205h893v-192l-585 -592h602v-203h-932z" />
<glyph unicode="{" horiz-adv-x="630" d="M37 608v152q96 12 139 51t43 115v264q0 156 94.5 229.5t292.5 77.5l25 -178q-55 -2 -85 -15.5t-46.5 -37t-20.5 -54t-4 -65.5v-221q0 -184 -153 -242q80 -35 116.5 -91t36.5 -151v-225q0 -35 4 -64.5t20.5 -52t47.5 -36t84 -15.5l-25 -176q-199 2 -293 77t-94 230v262 q0 76 -43 115t-139 51z" />
<glyph unicode="|" horiz-adv-x="591" d="M160 -152v1663h268v-1663h-268z" />
<glyph unicode="}" horiz-adv-x="630" d="M0 49q51 2 83 15.5t47 35t20.5 52t5.5 65.5v225q0 94 35.5 150.5t115.5 91.5q-152 57 -151 242v221q0 35 -5.5 65.5t-20.5 54t-46 37t-84 15.5l25 178q197 -4 293 -77.5t96 -229.5v-264q0 -76 43 -115t139 -51v-152q-96 -12 -139 -51t-43 -115v-262q0 -305 -389 -307z " />
<glyph unicode="~" horiz-adv-x="1019" d="M-4 1036q23 145 104.5 220t212.5 75q72 0 123 -17.5t90 -38t72 -37.5t66 -17q37 0 69.5 20.5t42.5 93.5h248q-6 -82 -33.5 -140t-69.5 -95t-93.5 -53.5t-108.5 -16.5q-72 0 -122 17.5t-90 39t-76 39t-79 17.5t-70.5 -23.5t-37.5 -83.5h-248z" />
<glyph unicode="&#xa1;" horiz-adv-x="518" d="M84 846q0 66 49 116t127 50q39 0 69.5 -14.5t54.5 -37t37 -52t13 -62.5t-13 -62.5t-37 -53t-54.5 -37t-69.5 -13.5q-78 0 -127 50t-49 116zM121 -379v936h282v-936h-282z" />
<glyph unicode="&#xa2;" d="M178 678q0 70 21.5 137.5t66.5 122.5t112.5 93t162.5 50v285h180v-283q74 -4 146.5 -34.5t117.5 -65.5l-115 -182q-53 35 -107 59.5t-118 24.5q-55 0 -94 -18.5t-62.5 -48.5t-35 -66.5t-11.5 -75.5q0 -35 12.5 -70t38 -63.5t65.5 -47t95 -20.5q25 0 46.5 2t47 9.5 t55 19.5t70.5 31l91 -183q-70 -39 -129.5 -56t-112.5 -24v-297h-180v302q-92 14 -160 53t-113 94t-67.5 119.5t-22.5 132.5z" />
<glyph unicode="&#xa3;" d="M74 504v223h149v213q0 106 36 188t96.5 138.5t140 85t170.5 28.5q145 0 258.5 -65.5t171.5 -204.5l-250 -113q-43 88 -88 115t-92 27q-27 0 -56.5 -10.5t-54.5 -35t-40 -65.5t-15 -100v-201h428v-223h-428v-256h585v-248h-862v504h-149z" />
<glyph unicode="&#xa4;" horiz-adv-x="1587" d="M0 199l344 311q-68 115 -68 244q0 127 62 233l-338 303l193 166l319 -289q61 35 133 51.5t143 16.5q76 0 148 -16.5t137 -53.5l320 291l194 -166l-340 -303q31 -53 43.5 -110.5t12.5 -116.5q0 -66 -15.5 -128.5t-50.5 -117.5l350 -315l-184 -170l-346 311 q-63 -33 -132 -47t-141 -14q-66 0 -131 14t-127 45l-342 -309zM532 756q0 -53 18.5 -99.5t53.5 -81.5t81 -54t103 -19q59 0 106.5 19.5t81.5 54t52.5 80.5t18.5 100q0 53 -18.5 100t-52.5 82t-81 54.5t-107 19.5q-115 0 -185.5 -73.5t-70.5 -182.5z" />
<glyph unicode="&#xa5;" d="M-41 1356h324l311 -537l295 537h313l-383 -649h244v-222h-332v-485h-291v485h-336v222h244z" />
<glyph unicode="&#xa6;" horiz-adv-x="591" d="M160 -152v631h268v-631h-268zM160 879v632h268v-632h-268z" />
<glyph unicode="&#xa7;" horiz-adv-x="1042" d="M98 -129l162 160q102 -113 223 -113q68 0 98.5 28.5t30.5 63.5q0 33 -21.5 60.5t-55 54.5t-76.5 52.5t-86 53.5q-45 31 -89 65t-79 76t-56.5 93t-21.5 117q0 94 65.5 163.5t157.5 104.5q-68 57 -106.5 119.5t-38.5 144.5q0 131 99 205t261 74q111 0 198 -35t167 -119 l-172 -147q-39 37 -88 62.5t-103 25.5q-41 0 -68.5 -20.5t-27.5 -51.5q0 -37 20.5 -65.5t54.5 -55t76 -54.5t85 -61q41 -33 80.5 -69.5t71.5 -79.5t50.5 -95.5t18.5 -113.5q0 -90 -55.5 -152.5t-131.5 -97.5q63 -47 105.5 -107.5t42.5 -152.5q0 -74 -35 -129t-90 -93 t-126 -57.5t-140 -19.5q-125 0 -223.5 43t-176.5 123zM393 582q0 -49 45 -95q47 -45 150 -106q45 20 63.5 58t18.5 73q0 43 -40 94t-132 117q-57 -23 -81 -64.5t-24 -76.5z" />
<glyph unicode="&#xa8;" horiz-adv-x="950" d="M133 1292q0 59 39 102.5t100 43.5t101.5 -43t40.5 -103q0 -57 -40 -101t-102 -44q-61 0 -100 44t-39 101zM537 1292q0 59 39.5 102.5t101.5 43.5q61 0 100 -43t39 -103q0 -57 -39 -101t-100 -44t-101 44t-40 101z" />
<glyph unicode="&#xa9;" horiz-adv-x="1667" d="M94 608q0 143 46 279.5t140.5 244t231.5 173t322 65.5q184 0 322 -65.5t230.5 -173t139.5 -243.5t47 -280q0 -143 -47 -281.5t-139.5 -246t-230.5 -173t-322 -65.5t-322 66q-137 66 -231.5 173t-140.5 245.5t-46 281.5zM276 608q0 -117 36 -225.5t108 -192.5 q70 -84 174 -134t240 -50q137 0 240.5 50t174 134t105.5 193t35 225q0 115 -35 223.5t-105.5 192.5t-174 134t-240.5 50t-242 -50t-174.5 -134t-105.5 -192.5t-36 -223.5zM416 604q0 119 34.5 208t94 147.5t137.5 87t162 28.5q135 0 222 -54t140 -163l-172 -88 q-37 63 -79 96t-107 33q-41 0 -80 -17.5t-67.5 -54t-47 -92t-18.5 -131.5q0 -135 65.5 -212t157.5 -77q49 0 96 25t93 96l167 -94q-70 -111 -160.5 -158t-201.5 -47q-96 0 -177 32t-139.5 92.5t-89 146t-30.5 196.5z" />
<glyph unicode="&#xaa;" horiz-adv-x="798" d="M63 834q0 80 49.5 129t118 75.5t147.5 36.5t140 15v20q0 41 -29.5 67.5t-72.5 26.5q-29 0 -70 -13t-78 -52l-145 96q33 39 70.5 62.5t78.5 38t81 19.5t75 5q133 0 219 -65.5t86 -215.5v-461h-192l-11 54q-88 -68 -196 -68q-51 0 -100.5 15.5t-86 45t-60.5 72t-24 97.5z M272 836q0 -29 29 -51.5t82 -22.5q43 0 77 19.5t60 41.5v123q-31 -4 -63.5 -8t-63.5 -10q-63 -12 -92 -38.5t-29 -53.5z" />
<glyph unicode="&#xab;" horiz-adv-x="1234" d="M27 512l444 434l184 -139l-307 -283l338 -276l-172 -156zM528 512l447 434l184 -139l-307 -283l338 -276l-172 -156z" />
<glyph unicode="&#xac;" d="M45 831v224h1061v-756h-246v532h-815z" />
<glyph unicode="&#xad;" horiz-adv-x="708" d="M82 412v243h547v-243h-547z" />
<glyph unicode="&#xae;" horiz-adv-x="1669" d="M96 608q0 143 46 279.5t140.5 244t231.5 173t322 65.5q184 0 321 -65.5t229.5 -173t139.5 -243.5t47 -280q0 -143 -47 -281.5t-139.5 -246t-230.5 -173t-322 -65.5q-182 0 -322 66q-137 66 -230.5 173t-139.5 245.5t-46 281.5zM276 608q0 -117 36 -225.5t108 -192.5 q70 -84 174 -134t242 -50q137 0 239.5 50t174 134t106.5 193t35 225q0 115 -35 223.5t-105.5 192.5t-174 134t-240.5 50t-242 -50t-175.5 -134t-106.5 -192.5t-36 -223.5zM526 209v831h328q174 0 258 -66.5t84 -195.5q0 -102 -50 -161.5t-124 -84.5l182 -323h-213l-166 301 h-98v-301h-201zM727 684h111q82 0 116.5 20.5t34.5 79.5q0 49 -30.5 65.5t-110.5 16.5h-121v-182z" />
<glyph unicode="&#xaf;" horiz-adv-x="950" d="M86 1184v182h780v-182h-780z" />
<glyph unicode="&#xb0;" horiz-adv-x="851" d="M86 1061q0 74 29.5 131t79 95t110 58.5t121.5 20.5q59 0 120.5 -20.5t110 -59.5t79 -96t30.5 -131t-30.5 -131.5t-79 -95t-109 -58t-119.5 -20.5q-63 0 -122.5 20.5t-108.5 59.5q-51 39 -81 96t-30 131zM309 1059q0 -63 37 -95t80 -32t80 31.5t37 95.5q0 66 -37 97.5 t-80 31.5t-80 -31.5t-37 -97.5z" />
<glyph unicode="&#xb1;" d="M51 0v225h1061v-225h-1061zM51 729v225h414v412h233v-412h414v-225h-414v-405h-233v405h-414z" />
<glyph unicode="&#xb2;" horiz-adv-x="677" d="M43 1180q115 199 332 198q102 0 174 -51t72 -156q0 -59 -26 -109t-69 -93q-33 -35 -61.5 -59.5t-63.5 -49.5h238v-170h-555v117q76 66 135.5 117t118.5 112q31 31 46 57.5t15 55.5t-15 46t-46 17q-27 0 -58.5 -21.5t-68.5 -92.5z" />
<glyph unicode="&#xb3;" horiz-adv-x="677" d="M35 844l168 84q37 -53 72.5 -70.5t68.5 -17.5q43 0 63.5 18.5t20.5 46.5q0 8 -3 19.5t-16.5 21.5t-38 17.5t-69.5 7.5v133q43 2 66.5 10t35 17.5t13.5 19.5t2 16q0 23 -17.5 37.5t-54.5 14.5q-31 0 -62.5 -16.5t-68.5 -72.5l-166 84q63 92 145 128t179 36q47 0 93 -11 t83 -34.5t58.5 -58.5t21.5 -82q0 -57 -24.5 -91t-57.5 -54q31 -16 62.5 -53.5t31.5 -94.5q0 -59 -25.5 -100t-66.5 -67.5t-93.5 -39t-105.5 -12.5q-86 0 -167.5 34t-147.5 130z" />
<glyph unicode="&#xb4;" horiz-adv-x="950" d="M190 1212l433 289l137 -170l-492 -229z" />
<glyph unicode="&#xb5;" horiz-adv-x="1308" d="M150 -387v1374h282v-600q0 -84 46 -142.5t149 -58.5q70 0 126 30t78 85q6 14 10.5 35.5t6.5 43t2 40.5v31v528h278v-707q0 -53 15.5 -73.5t46.5 -20.5q14 0 30.5 3t36.5 7l31 -180q-29 -10 -79 -20.5t-91 -10.5q-162 0 -200 134q-51 -68 -125 -101t-162 -33 q-68 0 -127.5 21.5t-89.5 54.5v-440h-264z" />
<glyph unicode="&#xb6;" horiz-adv-x="1138" d="M35 938q0 86 32.5 163t93 136t144.5 94t182 35h172v-1663h-229v813q-88 8 -160.5 46t-125 94.5t-81 129t-28.5 152.5zM764 -297v1663h233v-1663h-233z" />
<glyph unicode="&#xb7;" horiz-adv-x="700" d="M193 754q0 57 38.5 103t120.5 46q78 0 117 -46t39 -103q0 -55 -38 -101.5t-118 -46.5q-82 0 -120.5 46.5t-38.5 101.5z" />
<glyph unicode="&#xb8;" horiz-adv-x="950" d="M291 -371l133 281h250l-187 -281h-196z" />
<glyph unicode="&#xb9;" horiz-adv-x="677" d="M117 1210l282 152h160v-672h-211v447l-145 -74z" />
<glyph unicode="&#xba;" horiz-adv-x="888" d="M63 983q0 70 25 137.5t72 120.5t117.5 86t164.5 33t167 -33t120 -86t70.5 -120.5t23.5 -137.5t-23.5 -137.5t-70.5 -121.5t-117.5 -87t-169.5 -33q-96 0 -168 33q-70 33 -116.5 87t-70.5 121.5t-24 137.5zM291 983q0 -82 37 -141q37 -57 114 -58q80 0 118 58.5t38 140.5 q0 84 -38 143.5t-116 59.5q-80 0 -116.5 -59.5t-36.5 -143.5z" />
<glyph unicode="&#xbb;" horiz-adv-x="1234" d="M45 248l338 276l-307 283l184 139l445 -434l-488 -420zM549 248l338 276l-309 283l186 139l444 -434l-489 -420z" />
<glyph unicode="&#xbc;" horiz-adv-x="1665" d="M-24 1210l282 152h160v-672h-211v447l-145 -74zM992 148v149l346 377h190v-383h88v-143h-88v-146h-209v146h-327zM1162 291h157v176zM53 119l1409 1249l148 -141l-1415 -1252z" />
<glyph unicode="&#xbd;" horiz-adv-x="1665" d="M-24 1210l282 152h160v-672h-211v447l-145 -74zM1059 492q115 199 332 198q102 0 174 -51t72 -156q0 -59 -26 -109t-69 -93q-33 -35 -61.5 -59.5t-63.5 -49.5h238v-170h-555v117q76 66 135.5 117t118.5 112q31 31 46 57.5t15 55.5t-15 46t-46 17q-27 0 -58.5 -21.5 t-68.5 -92.5zM37 119l1409 1249l148 -141l-1415 -1252z" />
<glyph unicode="&#xbe;" horiz-adv-x="1665" d="M57 119l1409 1249l148 -141l-1415 -1252zM-14 844l168 84q37 -53 72.5 -70.5t68.5 -17.5q43 0 63.5 18.5t20.5 46.5q0 8 -3 19.5t-16.5 21.5t-38 17.5t-69.5 7.5v133q43 2 66.5 10t35 17.5t13.5 19.5t2 16q0 23 -17.5 37.5t-54.5 14.5q-31 0 -62.5 -16.5t-68.5 -72.5 l-166 84q63 92 145 128t179 36q47 0 93 -11t83 -34.5t58.5 -58.5t21.5 -82q0 -57 -24.5 -91t-57.5 -54q31 -16 62.5 -53.5t31.5 -94.5q0 -59 -25.5 -100t-66.5 -67.5t-93.5 -39t-105.5 -12.5q-86 0 -167.5 34t-147.5 130zM981 148v149l346 377h190v-383h88v-143h-88v-146 h-209v146h-327zM1151 291h157v176z" />
<glyph unicode="&#xbf;" horiz-adv-x="907" d="M12 -27q0 49 16.5 92.5t42 82t58.5 72.5t64 67q59 55 103 108.5t44 112.5v49h270v-86q0 -41 -13 -80t-33.5 -72.5t-46 -62.5t-46.5 -49q-33 -31 -63.5 -57.5t-55 -55t-40 -59.5t-15.5 -70q0 -72 45 -110.5t127 -38.5q61 0 124.5 33.5t133.5 132.5l207 -132 q-78 -113 -194.5 -184.5t-284.5 -71.5q-215 0 -329 102.5t-114 276.5zM301 846q0 66 48 116t126 50t127 -50.5t49 -115.5q0 -66 -49 -116t-127 -50t-126 50t-48 116z" />
<glyph unicode="&#xc0;" horiz-adv-x="1392" d="M0 0l590 1366h203l598 -1366h-312l-116 274h-551l-119 -274h-293zM500 506h368l-184 448zM305 1671l138 170l432 -289l-76 -110z" />
<glyph unicode="&#xc1;" horiz-adv-x="1392" d="M0 0l590 1366h203l598 -1366h-312l-116 274h-551l-119 -274h-293zM500 506h368l-184 448zM454 1552l433 289l137 -170l-492 -229z" />
<glyph unicode="&#xc2;" horiz-adv-x="1392" d="M0 0l590 1366h203l598 -1366h-312l-116 274h-551l-119 -274h-293zM500 506h368l-184 448zM322 1546l260 267h205l260 -271l-148 -86l-217 197l-217 -199z" />
<glyph unicode="&#xc3;" horiz-adv-x="1392" d="M0 0l590 1366h203l598 -1366h-312l-116 274h-551l-119 -274h-293zM500 506h368l-184 448zM241 1520q37 104 106.5 169.5t168.5 65.5q43 0 85 -18.5t76 -40.5q37 -23 70 -40.5t57 -17.5q23 0 61 24t73 105l147 -71q-39 -111 -107.5 -174.5t-166.5 -63.5q-45 0 -87 19.5 t-77 42.5q-37 23 -69 39t-56 16q-25 0 -59.5 -23.5t-71.5 -105.5z" />
<glyph unicode="&#xc4;" horiz-adv-x="1392" d="M0 0l590 1366h203l598 -1366h-312l-116 274h-551l-119 -274h-293zM500 506h368l-184 448zM342 1632q0 59 39 102.5t100 43.5t101.5 -43t40.5 -103q0 -57 -40 -101t-102 -44q-61 0 -100 44t-39 101zM746 1632q0 59 39.5 102.5t101.5 43.5q61 0 100 -43t39 -103 q0 -57 -39 -101t-100 -44t-101 44t-40 101z" />
<glyph unicode="&#xc5;" horiz-adv-x="1392" d="M0 0l590 1364q-41 20 -68 51q-29 31 -42 71t-13 81t13.5 81t42 71.5t70.5 51t97 19.5t98 -19.5t72 -50t42 -70.5t13 -81t-13 -81t-42 -72t-69 -50h2l598 -1366h-312l-116 274h-551l-119 -274h-293zM500 506h368l-184 448zM606 1569q0 -41 23 -68t61 -26q41 0 63.5 26.5 t22.5 67.5t-22.5 67.5t-63.5 26.5q-39 0 -61.5 -26.5t-22.5 -67.5z" />
<glyph unicode="&#xc6;" horiz-adv-x="1984" d="M0 0l872 1366h1004v-248h-590v-309h467v-246h-467v-315h639v-248h-930v360h-438l-229 -360h-328zM690 594h305v489z" />
<glyph unicode="&#xc7;" horiz-adv-x="1306" d="M96 678q0 184 53.5 318t140.5 223.5t201.5 132.5t237.5 43q98 0 178 -21.5t143.5 -62.5t111.5 -100.5t85 -135.5l-233 -125q-43 88 -106.5 145.5t-172.5 57.5q-66 0 -128 -28.5t-110 -88t-77 -148.5t-29 -210q0 -106 27.5 -192.5t77 -145.5t114 -92t138.5 -33 q41 0 78.5 8t72.5 29.5t66.5 57.5t64.5 93l225 -131q-96 -164 -219 -232.5t-299 -68.5q-141 0 -260 47.5t-204 138.5t-131 222t-46 299zM506 -371l133 281h250l-187 -281h-196z" />
<glyph unicode="&#xc8;" horiz-adv-x="1259" d="M166 0v1366h985v-248h-694v-311h573v-248h-573v-311h743v-248h-1034zM294 1671l138 170l432 -289l-76 -110z" />
<glyph unicode="&#xc9;" horiz-adv-x="1259" d="M166 0v1366h985v-248h-694v-311h573v-248h-573v-311h743v-248h-1034zM434 1552l433 289l137 -170l-492 -229z" />
<glyph unicode="&#xca;" horiz-adv-x="1259" d="M166 0v1366h985v-248h-694v-311h573v-248h-573v-311h743v-248h-1034zM291 1546l260 267h205l260 -271l-148 -86l-217 197l-217 -199z" />
<glyph unicode="&#xcb;" horiz-adv-x="1259" d="M166 0v1366h985v-248h-694v-311h573v-248h-573v-311h743v-248h-1034zM317 1632q0 59 39 102.5t100 43.5t101.5 -43t40.5 -103q0 -57 -40 -101t-102 -44q-61 0 -100 44t-39 101zM721 1632q0 59 39.5 102.5t101.5 43.5q61 0 100 -43t39 -103q0 -57 -39 -101t-100 -44 t-101 44t-40 101z" />
<glyph unicode="&#xcc;" horiz-adv-x="620" d="M166 0v1366h291v-1366h-291zM-56 1671l138 170l432 -289l-76 -110z" />
<glyph unicode="&#xcd;" horiz-adv-x="620" d="M166 0v1366h291v-1366h-291zM104 1552l433 289l137 -170l-492 -229z" />
<glyph unicode="&#xce;" horiz-adv-x="620" d="M166 0v1366h291v-1366h-291zM-51 1546l260 267h205l260 -271l-148 -86l-217 197l-217 -199z" />
<glyph unicode="&#xcf;" horiz-adv-x="620" d="M166 0v1366h291v-1366h-291zM-29 1632q0 59 39 102.5t100 43.5t101.5 -43t40.5 -103q0 -57 -40 -101t-102 -44q-61 0 -100 44t-39 101zM375 1632q0 59 39.5 102.5t101.5 43.5q61 0 100 -43t39 -103q0 -57 -39 -101t-100 -44t-101 44t-40 101z" />
<glyph unicode="&#xd0;" horiz-adv-x="1433" d="M0 596v215h178v555h426q86 0 186.5 -13.5t184.5 -47.5q92 -41 160.5 -105.5t114.5 -145.5t68.5 -174.5t22.5 -189.5t-22.5 -189t-68.5 -176t-114.5 -148.5t-160.5 -106.5q-158 -70 -361 -70h-436v596h-178zM469 246h119q152 0 260 51q102 51 150.5 156.5t48.5 224.5 q0 117 -45.5 220t-137.5 161q-49 31 -123.5 46t-148.5 15h-123v-309h326v-215h-326v-350z" />
<glyph unicode="&#xd1;" horiz-adv-x="1495" d="M166 0v1366h297l579 -852v852h287v-1366h-254l-624 903v-903h-285zM319 1520q37 104 106.5 169.5t168.5 65.5q43 0 85 -18.5t76 -40.5q37 -23 70 -40.5t57 -17.5q23 0 61 24t73 105l147 -71q-39 -111 -107.5 -174.5t-166.5 -63.5q-45 0 -87 19.5t-77 42.5q-37 23 -69 39 t-56 16q-25 0 -59.5 -23.5t-71.5 -105.5z" />
<glyph unicode="&#xd2;" horiz-adv-x="1519" d="M96 684q0 131 41 259t123 228.5t207 162t291 61.5t291 -61.5t208.5 -162t124.5 -228.5t41 -259t-41 -259t-124.5 -228.5t-208.5 -163t-291 -62.5t-291 62q-125 63 -207 163.5t-123 228.5t-41 259zM389 684q0 -90 23.5 -175t70.5 -151t115 -104.5t160 -38.5q90 0 159.5 39 t116.5 104.5t70.5 150.5t23.5 175t-23.5 175t-70.5 150.5t-116.5 104.5t-159.5 39q-92 0 -160 -39t-115 -104.5t-70.5 -150.5t-23.5 -175zM364 1671l138 170l432 -289l-76 -110z" />
<glyph unicode="&#xd3;" horiz-adv-x="1519" d="M96 684q0 131 41 259t123 228.5t207 162t291 61.5t291 -61.5t208.5 -162t124.5 -228.5t41 -259t-41 -259t-124.5 -228.5t-208.5 -163t-291 -62.5t-291 62q-125 63 -207 163.5t-123 228.5t-41 259zM389 684q0 -90 23.5 -175t70.5 -151t115 -104.5t160 -38.5q90 0 159.5 39 t116.5 104.5t70.5 150.5t23.5 175t-23.5 175t-70.5 150.5t-116.5 104.5t-159.5 39q-92 0 -160 -39t-115 -104.5t-70.5 -150.5t-23.5 -175zM522 1552l433 289l137 -170l-492 -229z" />
<glyph unicode="&#xd4;" horiz-adv-x="1519" d="M96 684q0 131 41 259t123 228.5t207 162t291 61.5t291 -61.5t208.5 -162t124.5 -228.5t41 -259t-41 -259t-124.5 -228.5t-208.5 -163t-291 -62.5t-291 62q-125 63 -207 163.5t-123 228.5t-41 259zM389 684q0 -90 23.5 -175t70.5 -151t115 -104.5t160 -38.5q90 0 159.5 39 t116.5 104.5t70.5 150.5t23.5 175t-23.5 175t-70.5 150.5t-116.5 104.5t-159.5 39q-92 0 -160 -39t-115 -104.5t-70.5 -150.5t-23.5 -175zM402 1546l260 267h205l260 -271l-148 -86l-217 197l-217 -199z" />
<glyph unicode="&#xd5;" horiz-adv-x="1519" d="M96 684q0 131 41 259t123 228.5t207 162t291 61.5t291 -61.5t208.5 -162t124.5 -228.5t41 -259t-41 -259t-124.5 -228.5t-208.5 -163t-291 -62.5t-291 62q-125 63 -207 163.5t-123 228.5t-41 259zM389 684q0 -90 23.5 -175t70.5 -151t115 -104.5t160 -38.5q90 0 159.5 39 t116.5 104.5t70.5 150.5t23.5 175t-23.5 175t-70.5 150.5t-116.5 104.5t-159.5 39q-92 0 -160 -39t-115 -104.5t-70.5 -150.5t-23.5 -175zM321 1520q37 104 106.5 169.5t168.5 65.5q43 0 85 -18.5t76 -40.5q37 -23 70 -40.5t57 -17.5q23 0 61 24t73 105l147 -71 q-39 -111 -107.5 -174.5t-166.5 -63.5q-45 0 -87 19.5t-77 42.5q-37 23 -69 39t-56 16q-25 0 -59.5 -23.5t-71.5 -105.5z" />
<glyph unicode="&#xd6;" horiz-adv-x="1519" d="M96 684q0 131 41 259t123 228.5t207 162t291 61.5t291 -61.5t208.5 -162t124.5 -228.5t41 -259t-41 -259t-124.5 -228.5t-208.5 -163t-291 -62.5t-291 62q-125 63 -207 163.5t-123 228.5t-41 259zM389 684q0 -90 23.5 -175t70.5 -151t115 -104.5t160 -38.5q90 0 159.5 39 t116.5 104.5t70.5 150.5t23.5 175t-23.5 175t-70.5 150.5t-116.5 104.5t-159.5 39q-92 0 -160 -39t-115 -104.5t-70.5 -150.5t-23.5 -175zM401 1632q0 59 39 102.5t100 43.5t101.5 -43t40.5 -103q0 -57 -40 -101t-102 -44q-61 0 -100 44t-39 101zM805 1632q0 59 39.5 102.5 t101.5 43.5q61 0 100 -43t39 -103q0 -57 -39 -101t-100 -44t-101 44t-40 101z" />
<glyph unicode="&#xd7;" horiz-adv-x="1165" d="M141 414l275 262l-275 262l166 158l277 -260l274 260l166 -158l-274 -262l274 -262l-166 -158l-274 260l-277 -260z" />
<glyph unicode="&#xd8;" horiz-adv-x="1519" d="M70 90l149 164q-61 94 -92 204.5t-31 225.5q0 131 41 258t123 227.5t207 162t291 61.5q119 0 216 -32t175 -87l135 149l184 -147l-163 -178q61 -92 89.5 -201t28.5 -213q0 -131 -41 -259t-124.5 -228.5t-208.5 -162t-291 -61.5q-217 0 -375 113l-131 -145zM389 684 q0 -113 35 -205l547 600q-43 35 -96.5 54.5t-116.5 19.5q-92 0 -160 -39t-115 -104.5t-70.5 -150.5t-23.5 -175zM553 279q37 -25 93 -44.5t112 -19.5q90 0 159.5 39t116.5 104.5t70.5 150.5t23.5 175q0 43 -8 99.5t-18 97.5z" />
<glyph unicode="&#xd9;" horiz-adv-x="1476" d="M158 469v897h288v-870q0 -123 76 -202t217 -79t216 79t75 202v870h291v-897q0 -117 -45 -209t-125 -156.5t-185.5 -98.5t-228.5 -34q-121 0 -227.5 34t-184 98.5t-122.5 156.5t-45 209zM301 1671l138 170l432 -289l-76 -110z" />
<glyph unicode="&#xda;" horiz-adv-x="1476" d="M158 469v897h288v-870q0 -123 76 -202t217 -79t216 79t75 202v870h291v-897q0 -117 -45 -209t-125 -156.5t-185.5 -98.5t-228.5 -34q-121 0 -227.5 34t-184 98.5t-122.5 156.5t-45 209zM542 1552l433 289l137 -170l-492 -229z" />
<glyph unicode="&#xdb;" horiz-adv-x="1476" d="M158 469v897h288v-870q0 -123 76 -202t217 -79t216 79t75 202v870h291v-897q0 -117 -45 -209t-125 -156.5t-185.5 -98.5t-228.5 -34q-121 0 -227.5 34t-184 98.5t-122.5 156.5t-45 209zM381 1546l260 267h205l260 -271l-148 -86l-217 197l-217 -199z" />
<glyph unicode="&#xdc;" horiz-adv-x="1476" d="M158 469v897h288v-870q0 -123 76 -202t217 -79t216 79t75 202v870h291v-897q0 -117 -45 -209t-125 -156.5t-185.5 -98.5t-228.5 -34q-121 0 -227.5 34t-184 98.5t-122.5 156.5t-45 209zM387 1632q0 59 39 102.5t100 43.5t101.5 -43t40.5 -103q0 -57 -40 -101t-102 -44 q-61 0 -100 44t-39 101zM791 1632q0 59 39.5 102.5t101.5 43.5q61 0 100 -43t39 -103q0 -57 -39 -101t-100 -44t-101 44t-40 101z" />
<glyph unicode="&#xdd;" horiz-adv-x="1249" d="M0 1366h322l313 -543l297 543h317l-475 -817v-549h-291v549zM426 1552l433 289l137 -170l-492 -229z" />
<glyph unicode="&#xde;" horiz-adv-x="1247" d="M166 0v1366h291v-211h161q109 0 202 -13.5t177 -51.5q111 -49 162 -145.5t51 -207.5q0 -63 -16 -124.5t-48 -116t-79 -97.5t-111 -67q-76 -29 -151.5 -40t-157.5 -11h-190v-281h-291zM457 516h164q63 0 112 6t86 23q61 27 91 74t30 100q0 57 -33 107.5t-94 70.5 q-37 12 -78 18.5t-104 6.5h-174v-406z" />
<glyph unicode="&#xdf;" horiz-adv-x="1302" d="M35 782v205h149q2 102 44 179t113 127t159 75t180 25q90 0 176 -25t152.5 -75t106.5 -124.5t40 -175.5v-176h-184q-39 0 -70 -17.5t-31 -51.5q0 -23 18.5 -43.5t48.5 -40t70 -40t83 -44.5q35 -18 65.5 -44t54 -60t37 -78t13.5 -101q0 -74 -29 -133.5t-77 -100 t-112.5 -63.5t-134.5 -23q-113 0 -210 47.5t-152 165.5l231 107q25 -55 60.5 -78.5t68.5 -23.5q37 0 60.5 22.5t23.5 63.5q0 37 -22.5 64.5t-58.5 51t-79 45t-86 45.5q-57 35 -102 91.5t-45 158.5q0 53 18.5 103.5t54.5 90.5t90 64.5t128 26.5q-8 43 -29.5 72.5t-50.5 47 t-61.5 26t-63.5 8.5q-35 0 -73 -11.5t-69.5 -39t-53 -72.5t-21.5 -113v-940h-283v782h-147z" />
<glyph unicode="&#xe0;" horiz-adv-x="1105" d="M74 291q0 74 31.5 130t86 95t124 63.5t147.5 36.5q53 10 117.5 15.5t107.5 9.5v33q0 59 -43 96t-100 37q-37 0 -93.5 -18.5t-107.5 -69.5l-190 127q39 49 92 82t107.5 51t108.5 25.5t99 7.5q90 0 166 -21.5t130 -67.5t85 -117t31 -171v-635h-258l-15 74 q-45 -45 -114.5 -71t-153.5 -26q-70 0 -135.5 21.5t-114.5 61.5t-78.5 98.5t-29.5 132.5zM346 297q0 -49 39 -79t115 -30q53 0 103 20.5t87 51.5v201q-43 -2 -91 -7t-91 -14q-90 -16 -126 -56t-36 -87zM239 1331l138 170l432 -289l-76 -110z" />
<glyph unicode="&#xe1;" horiz-adv-x="1105" d="M74 291q0 74 31.5 130t86 95t124 63.5t147.5 36.5q53 10 117.5 15.5t107.5 9.5v33q0 59 -43 96t-100 37q-37 0 -93.5 -18.5t-107.5 -69.5l-190 127q39 49 92 82t107.5 51t108.5 25.5t99 7.5q90 0 166 -21.5t130 -67.5t85 -117t31 -171v-635h-258l-15 74 q-45 -45 -114.5 -71t-153.5 -26q-70 0 -135.5 21.5t-114.5 61.5t-78.5 98.5t-29.5 132.5zM346 297q0 -49 39 -79t115 -30q53 0 103 20.5t87 51.5v201q-43 -2 -91 -7t-91 -14q-90 -16 -126 -56t-36 -87zM296 1212l433 289l137 -170l-492 -229z" />
<glyph unicode="&#xe2;" horiz-adv-x="1105" d="M74 291q0 74 31.5 130t86 95t124 63.5t147.5 36.5q53 10 117.5 15.5t107.5 9.5v33q0 59 -43 96t-100 37q-37 0 -93.5 -18.5t-107.5 -69.5l-190 127q39 49 92 82t107.5 51t108.5 25.5t99 7.5q90 0 166 -21.5t130 -67.5t85 -117t31 -171v-635h-258l-15 74 q-45 -45 -114.5 -71t-153.5 -26q-70 0 -135.5 21.5t-114.5 61.5t-78.5 98.5t-29.5 132.5zM346 297q0 -49 39 -79t115 -30q53 0 103 20.5t87 51.5v201q-43 -2 -91 -7t-91 -14q-90 -16 -126 -56t-36 -87zM170 1206l260 267h205l260 -271l-148 -86l-217 197l-217 -199z" />
<glyph unicode="&#xe3;" horiz-adv-x="1105" d="M74 291q0 74 31.5 130t86 95t124 63.5t147.5 36.5q53 10 117.5 15.5t107.5 9.5v33q0 59 -43 96t-100 37q-37 0 -93.5 -18.5t-107.5 -69.5l-190 127q39 49 92 82t107.5 51t108.5 25.5t99 7.5q90 0 166 -21.5t130 -67.5t85 -117t31 -171v-635h-258l-15 74 q-45 -45 -114.5 -71t-153.5 -26q-70 0 -135.5 21.5t-114.5 61.5t-78.5 98.5t-29.5 132.5zM346 297q0 -49 39 -79t115 -30q53 0 103 20.5t87 51.5v201q-43 -2 -91 -7t-91 -14q-90 -16 -126 -56t-36 -87zM116 1180q37 104 106.5 169.5t168.5 65.5q43 0 85 -18.5t76 -40.5 q37 -23 70 -40.5t57 -17.5q23 0 61 24t73 105l147 -71q-39 -111 -107.5 -174.5t-166.5 -63.5q-45 0 -87 19.5t-77 42.5q-37 23 -69 39t-56 16q-25 0 -59.5 -23.5t-71.5 -105.5z" />
<glyph unicode="&#xe4;" horiz-adv-x="1105" d="M74 291q0 74 31.5 130t86 95t124 63.5t147.5 36.5q53 10 117.5 15.5t107.5 9.5v33q0 59 -43 96t-100 37q-37 0 -93.5 -18.5t-107.5 -69.5l-190 127q39 49 92 82t107.5 51t108.5 25.5t99 7.5q90 0 166 -21.5t130 -67.5t85 -117t31 -171v-635h-258l-15 74 q-45 -45 -114.5 -71t-153.5 -26q-70 0 -135.5 21.5t-114.5 61.5t-78.5 98.5t-29.5 132.5zM346 297q0 -49 39 -79t115 -30q53 0 103 20.5t87 51.5v201q-43 -2 -91 -7t-91 -14q-90 -16 -126 -56t-36 -87zM207 1292q0 59 39 102.5t100 43.5t101.5 -43t40.5 -103q0 -57 -40 -101 t-102 -44q-61 0 -100 44t-39 101zM611 1292q0 59 39.5 102.5t101.5 43.5q61 0 100 -43t39 -103q0 -57 -39 -101t-100 -44t-101 44t-40 101z" />
<glyph unicode="&#xe5;" horiz-adv-x="1105" d="M74 291q0 74 31.5 130t86 95t124 63.5t147.5 36.5q53 10 117.5 15.5t107.5 9.5v33q0 59 -43 96t-100 37q-37 0 -93.5 -18.5t-107.5 -69.5l-190 127q39 49 92 82t107.5 51t108.5 25.5t99 7.5q90 0 166 -21.5t130 -67.5t85 -117t31 -171v-635h-258l-15 74 q-45 -45 -114.5 -71t-153.5 -26q-70 0 -135.5 21.5t-114.5 61.5t-78.5 98.5t-29.5 132.5zM346 297q0 -49 39 -79t115 -30q53 0 103 20.5t87 51.5v201q-43 -2 -91 -7t-91 -14q-90 -16 -126 -56t-36 -87zM330 1305q0 41 13.5 80.5t42 71.5t70.5 51.5t97 19.5t98 -19.5 t72 -50.5t42 -70.5t13 -80.5t-13 -81t-42 -72t-72 -51.5t-98 -19.5t-98 19q-41 20 -69.5 51t-42 71t-13.5 81zM469 1307q0 -41 23 -68t61 -27q41 0 63.5 27t22.5 68t-22.5 67.5t-63.5 26.5q-39 0 -61.5 -26.5t-22.5 -67.5z" />
<glyph unicode="&#xe6;" horiz-adv-x="1710" d="M74 303q0 100 59.5 163.5t151.5 100.5t199.5 52.5t201.5 19.5v49q0 57 -42 88t-114 31q-55 0 -107 -29.5t-87 -64.5l-176 141q59 70 155.5 114t225.5 44q217 0 319 -125q49 55 125 90t205 35q201 0 325.5 -144.5t129.5 -437.5h-674q2 -59 20.5 -103t51 -73t74.5 -43 t87 -14q74 0 132.5 27.5t107.5 99.5l196 -113q-160 -233 -432 -234q-129 0 -220 39t-146 107q-68 -70 -155 -108t-232 -38q-78 0 -146.5 20.5t-121 61.5t-83 101.5t-30.5 142.5zM352 295q0 -53 37 -82t100 -29q33 0 68 9.5t63.5 29t48 48t19.5 65.5v110q-70 -2 -129 -10 t-106 -26.5t-74 -46t-27 -68.5zM975 614h387q-4 84 -54.5 138.5t-129.5 54.5q-86 0 -137.5 -54.5t-65.5 -138.5z" />
<glyph unicode="&#xe7;" horiz-adv-x="1046" d="M76 489q0 131 41 229.5t108.5 164t155.5 97.5t182 32t169 -25.5t129 -66.5t90 -92.5t55 -102.5l-222 -104q-37 98 -91 138t-124 40q-43 0 -81.5 -18.5t-69.5 -55.5t-49.5 -94.5t-18.5 -136.5q0 -141 65.5 -219t172.5 -78q82 0 133 38.5t92 110.5l211 -108 q-68 -133 -180.5 -197t-263.5 -64q-98 0 -189.5 33t-161 97.5t-111.5 159.5t-42 222zM338 -371l133 281h250l-187 -281h-196z" />
<glyph unicode="&#xe8;" horiz-adv-x="1128" d="M76 494q0 125 40 221t108.5 161.5t159.5 100.5t194 35q217 0 350 -144.5t137 -437.5h-709q12 -125 82 -180t156 -55q76 0 135 25.5t125 111.5l209 -121q-88 -129 -205 -181.5t-272 -52.5q-104 0 -196.5 31t-162 95.5t-110.5 161t-41 229.5zM362 612h416 q-8 98 -69.5 147.5t-130.5 49.5q-35 0 -71 -13.5t-65.5 -39t-50.5 -62.5t-29 -82zM237 1331l138 170l432 -289l-76 -110z" />
<glyph unicode="&#xe9;" horiz-adv-x="1128" d="M76 494q0 125 40 221t108.5 161.5t159.5 100.5t194 35q217 0 350 -144.5t137 -437.5h-709q12 -125 82 -180t156 -55q76 0 135 25.5t125 111.5l209 -121q-88 -129 -205 -181.5t-272 -52.5q-104 0 -196.5 31t-162 95.5t-110.5 161t-41 229.5zM362 612h416 q-8 98 -69.5 147.5t-130.5 49.5q-35 0 -71 -13.5t-65.5 -39t-50.5 -62.5t-29 -82zM335 1212l433 289l137 -170l-492 -229z" />
<glyph unicode="&#xea;" horiz-adv-x="1128" d="M76 494q0 125 40 221t108.5 161.5t159.5 100.5t194 35q217 0 350 -144.5t137 -437.5h-709q12 -125 82 -180t156 -55q76 0 135 25.5t125 111.5l209 -121q-88 -129 -205 -181.5t-272 -52.5q-104 0 -196.5 31t-162 95.5t-110.5 161t-41 229.5zM362 612h416 q-8 98 -69.5 147.5t-130.5 49.5q-35 0 -71 -13.5t-65.5 -39t-50.5 -62.5t-29 -82zM205 1206l260 267h205l260 -271l-148 -86l-217 197l-217 -199z" />
<glyph unicode="&#xeb;" horiz-adv-x="1128" d="M76 494q0 125 40 221t108.5 161.5t159.5 100.5t194 35q217 0 350 -144.5t137 -437.5h-709q12 -125 82 -180t156 -55q76 0 135 25.5t125 111.5l209 -121q-88 -129 -205 -181.5t-272 -52.5q-104 0 -196.5 31t-162 95.5t-110.5 161t-41 229.5zM362 612h416 q-8 98 -69.5 147.5t-130.5 49.5q-35 0 -71 -13.5t-65.5 -39t-50.5 -62.5t-29 -82zM237 1292q0 59 39 102.5t100 43.5t101.5 -43t40.5 -103q0 -57 -40 -101t-102 -44q-61 0 -100 44t-39 101zM641 1292q0 59 39.5 102.5t101.5 43.5q61 0 100 -43t39 -103q0 -57 -39 -101 t-100 -44t-101 44t-40 101z" />
<glyph unicode="&#xec;" horiz-adv-x="561" d="M139 0v977h283v-977h-283zM-82 1331l138 170l432 -289l-76 -110z" />
<glyph unicode="&#xed;" horiz-adv-x="561" d="M139 0v977h283v-977h-283zM75 1212l433 289l137 -170l-492 -229z" />
<glyph unicode="&#xee;" horiz-adv-x="561" d="M139 0v977h283v-977h-283zM-80 1206l260 267h205l260 -271l-148 -86l-217 197l-217 -199z" />
<glyph unicode="&#xef;" horiz-adv-x="561" d="M139 0v977h283v-977h-283zM-62 1292q0 59 39 102.5t100 43.5t101.5 -43t40.5 -103q0 -57 -40 -101t-102 -44q-61 0 -100 44t-39 101zM342 1292q0 59 39.5 102.5t101.5 43.5q61 0 100 -43t39 -103q0 -57 -39 -101t-100 -44t-101 44t-40 101z" />
<glyph unicode="&#xf0;" horiz-adv-x="1222" d="M84 492q0 104 29.5 196t89 162t147.5 110.5t203 40.5q55 0 104.5 -12t92.5 -39q-25 51 -71 96.5t-104.5 80t-124 58t-131.5 34.5l56 174q94 -14 163.5 -35t139.5 -55l125 151l162 -119l-117 -145q80 -66 135 -144.5t91 -166.5t52.5 -181.5t16.5 -187.5q0 -117 -35 -214 t-101.5 -168t-166 -109.5t-228.5 -38.5q-104 0 -200.5 31.5t-169 96t-115.5 161t-43 223.5zM356 494q0 -74 21.5 -129.5t57.5 -93.5t80 -56t91 -18q45 0 89 18t79 56t56.5 95.5t21.5 135.5q0 59 -16 127q-12 68 -29 106q-102 51 -199 51q-109 0 -180.5 -72.5t-71.5 -219.5z " />
<glyph unicode="&#xf1;" horiz-adv-x="1249" d="M139 0v987h256l13 -78q66 49 149.5 76t167.5 27q86 0 157.5 -23.5t124 -75t81 -133.5t28.5 -196v-584h-282v563q0 113 -51.5 174.5t-143.5 61.5q-66 0 -121 -31t-96 -68v-700h-283zM190 1180q37 104 106.5 169.5t168.5 65.5q43 0 85 -18.5t76 -40.5q37 -23 70 -40.5 t57 -17.5q23 0 61 24t73 105l147 -71q-39 -111 -107.5 -174.5t-166.5 -63.5q-45 0 -87 19.5t-77 42.5q-37 23 -69 39t-56 16q-25 0 -59.5 -23.5t-71.5 -105.5z" />
<glyph unicode="&#xf2;" horiz-adv-x="1196" d="M76 498q0 96 31.5 188t97 165t164 117t229.5 44t228.5 -44t164 -117t98 -165t31.5 -188t-31.5 -189.5t-98 -167t-164 -119t-228.5 -45.5t-229 46q-98 45 -164 118.5t-97.5 167t-31.5 189.5zM350 498q0 -63 16.5 -117.5t47.5 -95.5q29 -41 75 -64.5t109 -23.5 q59 0 105.5 23.5t78 64.5t48 95t16.5 118q0 61 -16.5 116.5t-48 95.5t-78 63.5t-105.5 23.5q-61 0 -107.5 -23.5t-77 -63.5t-47 -95.5t-16.5 -116.5zM210 1331l138 170l432 -289l-76 -110z" />
<glyph unicode="&#xf3;" horiz-adv-x="1196" d="M76 498q0 96 31.5 188t97 165t164 117t229.5 44t228.5 -44t164 -117t98 -165t31.5 -188t-31.5 -189.5t-98 -167t-164 -119t-228.5 -45.5t-229 46q-98 45 -164 118.5t-97.5 167t-31.5 189.5zM350 498q0 -63 16.5 -117.5t47.5 -95.5q29 -41 75 -64.5t109 -23.5 q59 0 105.5 23.5t78 64.5t48 95t16.5 118q0 61 -16.5 116.5t-48 95.5t-78 63.5t-105.5 23.5q-61 0 -107.5 -23.5t-77 -63.5t-47 -95.5t-16.5 -116.5zM337 1212l433 289l137 -170l-492 -229z" />
<glyph unicode="&#xf4;" horiz-adv-x="1196" d="M76 498q0 96 31.5 188t97 165t164 117t229.5 44t228.5 -44t164 -117t98 -165t31.5 -188t-31.5 -189.5t-98 -167t-164 -119t-228.5 -45.5t-229 46q-98 45 -164 118.5t-97.5 167t-31.5 189.5zM350 498q0 -63 16.5 -117.5t47.5 -95.5q29 -41 75 -64.5t109 -23.5 q59 0 105.5 23.5t78 64.5t48 95t16.5 118q0 61 -16.5 116.5t-48 95.5t-78 63.5t-105.5 23.5q-61 0 -107.5 -23.5t-77 -63.5t-47 -95.5t-16.5 -116.5zM228 1206l260 267h205l260 -271l-148 -86l-217 197l-217 -199z" />
<glyph unicode="&#xf5;" horiz-adv-x="1196" d="M76 498q0 96 31.5 188t97 165t164 117t229.5 44t228.5 -44t164 -117t98 -165t31.5 -188t-31.5 -189.5t-98 -167t-164 -119t-228.5 -45.5t-229 46q-98 45 -164 118.5t-97.5 167t-31.5 189.5zM350 498q0 -63 16.5 -117.5t47.5 -95.5q29 -41 75 -64.5t109 -23.5 q59 0 105.5 23.5t78 64.5t48 95t16.5 118q0 61 -16.5 116.5t-48 95.5t-78 63.5t-105.5 23.5q-61 0 -107.5 -23.5t-77 -63.5t-47 -95.5t-16.5 -116.5zM139 1180q37 104 106.5 169.5t168.5 65.5q43 0 85 -18.5t76 -40.5q37 -23 70 -40.5t57 -17.5q23 0 61 24t73 105l147 -71 q-39 -111 -107.5 -174.5t-166.5 -63.5q-45 0 -87 19.5t-77 42.5q-37 23 -69 39t-56 16q-25 0 -59.5 -23.5t-71.5 -105.5z" />
<glyph unicode="&#xf6;" horiz-adv-x="1196" d="M76 498q0 96 31.5 188t97 165t164 117t229.5 44t228.5 -44t164 -117t98 -165t31.5 -188t-31.5 -189.5t-98 -167t-164 -119t-228.5 -45.5t-229 46q-98 45 -164 118.5t-97.5 167t-31.5 189.5zM350 498q0 -63 16.5 -117.5t47.5 -95.5q29 -41 75 -64.5t109 -23.5 q59 0 105.5 23.5t78 64.5t48 95t16.5 118q0 61 -16.5 116.5t-48 95.5t-78 63.5t-105.5 23.5q-61 0 -107.5 -23.5t-77 -63.5t-47 -95.5t-16.5 -116.5zM248 1292q0 59 39 102.5t100 43.5t101.5 -43t40.5 -103q0 -57 -40 -101t-102 -44q-61 0 -100 44t-39 101zM652 1292 q0 59 39.5 102.5t101.5 43.5q61 0 100 -43t39 -103q0 -57 -39 -101t-100 -44t-101 44t-40 101z" />
<glyph unicode="&#xf7;" d="M49 563v225h1061v-225h-1061zM408 309q0 63 50 111.5t126 48.5q74 0 123 -48t49 -112q0 -66 -49.5 -114t-122.5 -48q-76 0 -126 48t-50 114zM408 1069q0 31 13 60.5t36.5 52t55.5 36t71 13.5q74 0 123 -49t49 -113q0 -63 -49.5 -112.5t-122.5 -49.5q-39 0 -72 13 q-31 14 -54.5 36.5t-36.5 52t-13 60.5z" />
<glyph unicode="&#xf8;" horiz-adv-x="1196" d="M76 498q0 96 31.5 188t97 165t164 117t229.5 44q68 0 126 -12.5t107 -34.5l82 114l150 -96l-84 -119q70 -74 105.5 -169t35.5 -197q0 -96 -31.5 -189.5t-98 -167t-164 -119t-228.5 -45.5q-119 0 -217 39l-88 -125l-150 97l88 125q-78 76 -116.5 177.5t-38.5 207.5z M348 498q0 -100 33 -174l321 456h3q-23 10 -49.5 15.5t-57.5 5.5q-61 0 -107.5 -23.5t-78 -65.5t-48 -97.5t-16.5 -116.5zM518 203q33 -10 80 -10q59 0 105.5 23.5t79 65.5t49 97t16.5 119q0 39 -7 76.5t-16 68.5z" />
<glyph unicode="&#xf9;" horiz-adv-x="1245" d="M133 399v588h283v-561q0 -102 41 -165.5t139 -63.5q82 0 137 29.5t90 56.5v704h283v-987h-258l-12 78q-74 -57 -154 -77.5t-158 -20.5q-188 0 -289.5 104t-101.5 315zM221 1331l138 170l432 -289l-76 -110z" />
<glyph unicode="&#xfa;" horiz-adv-x="1245" d="M133 399v588h283v-561q0 -102 41 -165.5t139 -63.5q82 0 137 29.5t90 56.5v704h283v-987h-258l-12 78q-74 -57 -154 -77.5t-158 -20.5q-188 0 -289.5 104t-101.5 315zM421 1212l433 289l137 -170l-492 -229z" />
<glyph unicode="&#xfb;" horiz-adv-x="1245" d="M133 399v588h283v-561q0 -102 41 -165.5t139 -63.5q82 0 137 29.5t90 56.5v704h283v-987h-258l-12 78q-74 -57 -154 -77.5t-158 -20.5q-188 0 -289.5 104t-101.5 315zM254 1206l260 267h205l260 -271l-148 -86l-217 197l-217 -199z" />
<glyph unicode="&#xfc;" horiz-adv-x="1245" d="M133 399v588h283v-561q0 -102 41 -165.5t139 -63.5q82 0 137 29.5t90 56.5v704h283v-987h-258l-12 78q-74 -57 -154 -77.5t-158 -20.5q-188 0 -289.5 104t-101.5 315zM278 1292q0 59 39 102.5t100 43.5t101.5 -43t40.5 -103q0 -57 -40 -101t-102 -44q-61 0 -100 44 t-39 101zM682 1292q0 59 39.5 102.5t101.5 43.5q61 0 100 -43t39 -103q0 -57 -39 -101t-100 -44t-101 44t-40 101z" />
<glyph unicode="&#xfd;" horiz-adv-x="1112" d="M0 987h299l270 -674l258 674h285l-539 -1220q-23 -51 -55.5 -86t-71 -55.5t-83 -29t-87.5 -8.5q-55 0 -122.5 13.5t-139.5 42.5l88 190q41 -18 81 -26.5t69 -8.5q25 0 51.5 14.5t46.5 57.5l80 170zM346 1212l433 289l137 -170l-492 -229z" />
<glyph unicode="&#xfe;" horiz-adv-x="1249" d="M158 -387v1753h278v-430q55 39 116.5 56.5t131.5 17.5q119 0 209 -43t150.5 -115t91 -167t30.5 -200q0 -121 -46 -215t-125 -159.5t-185.5 -99.5t-228.5 -34q-74 0 -142 19v-383h-280zM436 215q25 -8 52.5 -13t60.5 -5q68 0 130 16t108.5 50t75 88.5t28.5 129.5 q0 150 -75 233t-198 83q-51 0 -98 -14.5t-84 -34.5v-533z" />
<glyph unicode="&#xff;" horiz-adv-x="1112" d="M0 987h299l270 -674l258 674h285l-539 -1220q-23 -51 -55.5 -86t-71 -55.5t-83 -29t-87.5 -8.5q-55 0 -122.5 13.5t-139.5 42.5l88 190q41 -18 81 -26.5t69 -8.5q25 0 51.5 14.5t46.5 57.5l80 170zM221 1292q0 59 39 102.5t100 43.5t101.5 -43t40.5 -103q0 -57 -40 -101 t-102 -44q-61 0 -100 44t-39 101zM625 1292q0 59 39.5 102.5t101.5 43.5q61 0 100 -43t39 -103q0 -57 -39 -101t-100 -44t-101 44t-40 101z" />
<glyph unicode="&#x131;" horiz-adv-x="561" d="M139 0v977h283v-977h-283z" />
<glyph unicode="&#x152;" horiz-adv-x="2033" d="M96 684q0 160 56.5 286t153.5 214t233.5 135t296.5 47h1089v-248h-647v-311h526v-248h-526v-311h696v-248h-1138q-160 0 -296.5 49t-233.5 138t-153.5 215t-56.5 282zM389 684q0 -96 35 -176t92 -138.5t136 -90t169 -31.5h166v870h-166q-90 0 -170 -29.5t-137 -86 t-91 -137.5t-34 -181z" />
<glyph unicode="&#x153;" horiz-adv-x="1814" d="M76 496q0 113 35.5 208t103.5 163.5t160 106.5t200 38q143 0 223.5 -39t133.5 -105q27 33 59.5 59.5t72.5 45t90 29t118 10.5q125 0 216 -44t148.5 -122t86 -184.5t28.5 -231.5h-678q14 -125 76.5 -179t159.5 -54q57 0 112.5 24.5t118.5 112.5l209 -121 q-84 -131 -201.5 -183.5t-232.5 -52.5q-238 0 -381 146q-72 -72 -159 -109t-204 -37q-109 0 -200.5 39t-157.5 108t-101.5 164t-35.5 208zM352 498q0 -80 19.5 -137.5t50.5 -94.5q29 -37 68.5 -54t80.5 -17q61 0 103.5 26.5t68 69.5t37 98t11.5 113q0 78 -19.5 133t-50.5 91 t-70 53.5t-80 17.5t-78.5 -17.5t-69.5 -53.5t-51.5 -92t-19.5 -136zM1075 614h393q-2 31 -13 65t-34.5 63.5t-59.5 48t-85 18.5q-43 0 -79 -17.5t-61.5 -46t-42 -63.5t-18.5 -68z" />
<glyph unicode="&#x178;" horiz-adv-x="1249" d="M0 1366h322l313 -543l297 543h317l-475 -817v-549h-291v549zM295 1632q0 59 39 102.5t100 43.5t101.5 -43t40.5 -103q0 -57 -40 -101t-102 -44q-61 0 -100 44t-39 101zM699 1632q0 59 39.5 102.5t101.5 43.5q61 0 100 -43t39 -103q0 -57 -39 -101t-100 -44t-101 44 t-40 101z" />
<glyph unicode="&#x2c6;" horiz-adv-x="950" d="M113 1206l260 267h205l260 -271l-148 -86l-217 197l-217 -199z" />
<glyph unicode="&#x2da;" horiz-adv-x="950" d="M252 1305q0 41 13.5 80.5t42 71.5t70.5 51.5t97 19.5t98 -19.5t72 -50.5t42 -70.5t13 -80.5t-13 -81t-42 -72t-72 -51.5t-98 -19.5t-98 19q-41 20 -69.5 51t-42 71t-13.5 81zM391 1307q0 -41 23 -68t61 -27q41 0 63.5 27t22.5 68t-22.5 67.5t-63.5 26.5 q-39 0 -61.5 -26.5t-22.5 -67.5z" />
<glyph unicode="&#x2dc;" horiz-adv-x="950" d="M53 1180q37 104 106.5 169.5t168.5 65.5q43 0 85 -18.5t76 -40.5q37 -23 70 -40.5t57 -17.5q23 0 61 24t73 105l147 -71q-39 -111 -107.5 -174.5t-166.5 -63.5q-45 0 -87 19.5t-77 42.5q-37 23 -69 39t-56 16q-25 0 -59.5 -23.5t-71.5 -105.5z" />
<glyph unicode="&#x2000;" horiz-adv-x="919" />
<glyph unicode="&#x2001;" horiz-adv-x="1841" />
<glyph unicode="&#x2002;" horiz-adv-x="919" />
<glyph unicode="&#x2003;" horiz-adv-x="1841" />
<glyph unicode="&#x2004;" horiz-adv-x="612" />
<glyph unicode="&#x2005;" horiz-adv-x="458" />
<glyph unicode="&#x2006;" horiz-adv-x="305" />
<glyph unicode="&#x2007;" horiz-adv-x="305" />
<glyph unicode="&#x2008;" horiz-adv-x="229" />
<glyph unicode="&#x2009;" horiz-adv-x="366" />
<glyph unicode="&#x200a;" horiz-adv-x="100" />
<glyph unicode="&#x2010;" horiz-adv-x="708" d="M82 412v243h547v-243h-547z" />
<glyph unicode="&#x2011;" horiz-adv-x="708" d="M82 412v243h547v-243h-547z" />
<glyph unicode="&#x2012;" horiz-adv-x="708" d="M82 412v243h547v-243h-547z" />
<glyph unicode="&#x2013;" horiz-adv-x="1189" d="M0 418v192h1190v-192h-1190z" />
<glyph unicode="&#x2014;" horiz-adv-x="2377" d="M0 418v192h2378v-192h-2378z" />
<glyph unicode="&#x2018;" horiz-adv-x="493" d="M82 1204q0 68 45 115t115 47q76 0 114.5 -52t38.5 -114q0 -41 -18.5 -78t-44.5 -57q20 -25 66 -49.5t96 -34.5l-35 -107q-102 25 -173 63t-116 83t-66.5 93t-21.5 91z" />
<glyph unicode="&#x2019;" horiz-adv-x="493" d="M0 981q49 10 95 34.5t69 49.5q-31 20 -48.5 57t-17.5 78q0 61 39 113.5t117 52.5q68 0 114 -47t46 -115q0 -43 -21.5 -91t-67.5 -93t-118 -83t-170 -63z" />
<glyph unicode="&#x201a;" horiz-adv-x="493" d="M0 -111q49 10 95 35t69 49q-31 20 -48.5 57.5t-17.5 78.5q0 61 39 113t117 52q68 0 114 -47t46 -114q0 -43 -21.5 -91.5t-67.5 -92.5t-118 -83t-170 -63z" />
<glyph unicode="&#x201c;" horiz-adv-x="903" d="M74 1204q0 68 45 115t112 47q78 0 117 -52t39 -114q0 -41 -18.5 -78t-46.5 -57q23 -25 68.5 -49.5t94.5 -34.5l-36 -107q-100 25 -171 63t-116 83t-66.5 93t-21.5 91zM500 1204q0 68 45 115t112 47q78 0 117 -52t39 -114q0 -41 -17.5 -78t-47.5 -57q23 -25 68.5 -49.5 t94.5 -34.5l-37 -107q-100 25 -170.5 63t-115.5 83t-66.5 93t-21.5 91z" />
<glyph unicode="&#x201d;" horiz-adv-x="903" d="M-8 981q49 10 95 34.5t69 49.5q-31 20 -48.5 57t-17.5 78q0 61 39 113.5t117 52.5q68 0 112.5 -47t44.5 -115q0 -43 -21.5 -91t-66.5 -93t-116.5 -83t-169.5 -63zM418 981q49 10 95 34.5t67 49.5q-27 20 -45.5 57t-18.5 78q0 61 39 113.5t117 52.5q68 0 112.5 -47 t44.5 -115q0 -43 -21.5 -91t-66.5 -93t-115.5 -83t-170.5 -63z" />
<glyph unicode="&#x201e;" horiz-adv-x="903" d="M-8 -111q49 10 95 35t69 49q-31 20 -48.5 57.5t-17.5 78.5q0 61 39 113t117 52q68 0 112.5 -47t44.5 -114q0 -43 -21.5 -91.5t-66.5 -92.5t-116.5 -83t-169.5 -63zM418 -111q49 10 95 35t67 49q-27 20 -45.5 57.5t-18.5 78.5q0 61 39 113t117 52q68 0 112.5 -47 t44.5 -114q0 -43 -21.5 -91.5t-66.5 -92.5t-115.5 -83t-170.5 -63z" />
<glyph unicode="&#x2022;" horiz-adv-x="1105" d="M106 788q0 86 36 163t96.5 134.5t142.5 91t172 33.5t172 -33.5t142.5 -91t95 -134.5t34.5 -163t-34.5 -162.5t-95 -134t-142.5 -91t-172 -33.5t-172 32q-82 35 -142.5 92.5t-96.5 134t-36 162.5z" />
<glyph unicode="&#x2026;" horiz-adv-x="1474" d="M82 125q0 57 39 103t121 46q76 0 114.5 -46t38.5 -103q0 -55 -38 -101.5t-115 -46.5q-82 0 -121 46.5t-39 101.5zM580 125q0 57 38.5 103t120.5 46q78 0 117 -46t39 -103q0 -55 -38 -101.5t-118 -46.5q-82 0 -120.5 46.5t-38.5 101.5zM1081 125q0 57 39 103t119 46 t117 -46t37 -103q0 -55 -37 -101.5t-117 -46.5q-82 0 -120 46.5t-38 101.5z" />
<glyph unicode="&#x202f;" horiz-adv-x="366" />
<glyph unicode="&#x2039;" horiz-adv-x="743" d="M33 512l444 434l185 -139l-308 -283l338 -276l-172 -156z" />
<glyph unicode="&#x203a;" horiz-adv-x="743" d="M51 248l338 276l-307 283l184 139l447 -434l-490 -420z" />
<glyph unicode="&#x2044;" horiz-adv-x="475" d="M-543 119l1409 1249l148 -141l-1415 -1252z" />
<glyph unicode="&#x205f;" horiz-adv-x="458" />
<glyph unicode="&#x2074;" horiz-adv-x="677" d="M27 836v149l346 377h190v-383h88v-143h-88v-146h-209v146h-327zM197 979h157v176z" />
<glyph unicode="&#x20ac;" d="M31 575v232h137q10 117 48 221.5t104.5 183t162 123.5t224.5 45q172 0 279.5 -73.5t176.5 -233.5l-245 -90q-41 94 -92.5 126t-112.5 32q-55 0 -95 -28t-68 -74t-43 -106.5t-20 -125.5h314v-232h-316q2 -74 18.5 -140t45.5 -115.5t72 -78t104 -28.5q66 0 118 35t111 137 l211 -119q-66 -137 -171 -213t-281 -76q-147 0 -247.5 49.5t-165 132.5t-95.5 190.5t-39 225.5h-135z" />
<glyph unicode="&#x2122;" horiz-adv-x="1413" d="M41 1204v162h510v-162h-172v-426h-166v426h-172zM635 778v588h196l140 -295l125 295h196v-588h-162v344l-143 -348h-33l-159 342v-338h-160z" />
<glyph unicode="&#xe000;" horiz-adv-x="985" d="M0 985h985v-985h-985v985z" />
<glyph unicode="&#xfb01;" horiz-adv-x="1216" d="M35 782v205h143v35q0 102 38 174t100.5 116t143.5 63.5t169 19.5q139 0 228 -28t147 -67l-132 -194q-39 29 -94 46t-131 17t-132 -34.5t-56 -122.5v-25h233v-205h-231v-782h-283v782h-143zM799 0v987h278v-987h-278z" />
<glyph unicode="&#xfb02;" horiz-adv-x="1214" d="M35 782v205h145v31q0 113 51.5 186.5t129 114.5t175 57.5t189.5 16.5q82 0 176 -8.5t174 -22.5v-1362h-280v1157q-25 4 -57.5 5t-55.5 1q-94 0 -158.5 -33.5t-64.5 -117.5v-25h219v-205h-217v-782h-283v782h-143z" />
<glyph unicode="&#xfb03;" horiz-adv-x="1943" d="M35 782v205h143v35q0 98 27.5 168t77 116t115 67.5t143.5 21.5q102 0 178 -15.5t139 -44.5l-82 -205q-86 41 -190 41q-55 0 -91 -33.5t-36 -117.5v-33h446v35q0 102 38 174t100.5 116t142.5 63.5t168 19.5q141 0 230 -28t147 -67l-132 -194q-39 29 -94 46t-131 17 t-132 -34.5t-56 -122.5v-25h233v-205h-231v-782h-283v782h-444v-782h-283v782h-143zM1524 0v987h280v-987h-280z" />
<glyph unicode="&#xfb04;" horiz-adv-x="1941" d="M35 782v205h143v35q0 98 27.5 168t77 116t115 67.5t143.5 21.5q102 0 178 -15.5t139 -44.5l-82 -205q-86 41 -190 41q-55 0 -91 -33.5t-36 -117.5v-33h448v31q0 113 50.5 186.5t129 114.5t176 57.5t189.5 16.5q82 0 176 -8.5t174 -22.5v-1362h-280v1157q-25 4 -57.5 5 t-55.5 1q-94 0 -158.5 -33.5t-64.5 -117.5v-25h219v-205h-217v-782h-283v782h-444v-782h-283v782h-143z" />
</font>
</defs>
</svg>
